<?xml version="1.0" encoding="utf-8" standalone="no"?>
<!DOCTYPE svg PUBLIC "-//W3C//DTD SVG 1.1//EN"
  "http://www.w3.org/Graphics/SVG/1.1/DTD/svg11.dtd">
<svg xmlns:xlink="http://www.w3.org/1999/xlink" width="460.8pt" height="345.6pt" viewBox="0 0 460.8 345.6" xmlns="http://www.w3.org/2000/svg" version="1.1">
 <metadata>
  <rdf:RDF xmlns:dc="http://purl.org/dc/elements/1.1/" xmlns:cc="http://creativecommons.org/ns#" xmlns:rdf="http://www.w3.org/1999/02/22-rdf-syntax-ns#">
   <cc:Work>
    <dc:type rdf:resource="http://purl.org/dc/dcmitype/StillImage"/>
    <dc:date>2024-02-06T19:58:11.814048</dc:date>
    <dc:format>image/svg+xml</dc:format>
    <dc:creator>
     <cc:Agent>
      <dc:title>Matplotlib v3.8.0, https://matplotlib.org/</dc:title>
     </cc:Agent>
    </dc:creator>
   </cc:Work>
  </rdf:RDF>
 </metadata>
 <defs>
  <style type="text/css">*{stroke-linejoin: round; stroke-linecap: butt}</style>
 </defs>
 <g id="figure_1">
  <g id="patch_1">
   <path d="M 0 345.6 
L 460.8 345.6 
L 460.8 0 
L 0 0 
z
" style="fill: #ffffff"/>
  </g>
  <g id="axes_1">
   <g id="patch_2">
    <path d="M 57.6 307.584 
L 414.72 307.584 
L 414.72 41.472 
L 57.6 41.472 
z
" style="fill: #ffffff"/>
   </g>
   <g id="matplotlib.axis_1">
    <g id="xtick_1">
     <g id="line2d_1">
      <defs>
       <path id="m856cefc23b" d="M 0 0 
L 0 3.5 
" style="stroke: #000000; stroke-width: 0.8"/>
      </defs>
      <g>
       <use xlink:href="#m856cefc23b" x="57.6" y="307.584" style="stroke: #000000; stroke-width: 0.8"/>
      </g>
     </g>
     <g id="text_1">
      <!-- −180 -->
      <g transform="translate(43.866406 322.182437) scale(0.1 -0.1)">
       <defs>
        <path id="DejaVuSans-2212" d="M 678 2272 
L 4684 2272 
L 4684 1741 
L 678 1741 
L 678 2272 
z
" transform="scale(0.015625)"/>
        <path id="DejaVuSans-31" d="M 794 531 
L 1825 531 
L 1825 4091 
L 703 3866 
L 703 4441 
L 1819 4666 
L 2450 4666 
L 2450 531 
L 3481 531 
L 3481 0 
L 794 0 
L 794 531 
z
" transform="scale(0.015625)"/>
        <path id="DejaVuSans-38" d="M 2034 2216 
Q 1584 2216 1326 1975 
Q 1069 1734 1069 1313 
Q 1069 891 1326 650 
Q 1584 409 2034 409 
Q 2484 409 2743 651 
Q 3003 894 3003 1313 
Q 3003 1734 2745 1975 
Q 2488 2216 2034 2216 
z
M 1403 2484 
Q 997 2584 770 2862 
Q 544 3141 544 3541 
Q 544 4100 942 4425 
Q 1341 4750 2034 4750 
Q 2731 4750 3128 4425 
Q 3525 4100 3525 3541 
Q 3525 3141 3298 2862 
Q 3072 2584 2669 2484 
Q 3125 2378 3379 2068 
Q 3634 1759 3634 1313 
Q 3634 634 3220 271 
Q 2806 -91 2034 -91 
Q 1263 -91 848 271 
Q 434 634 434 1313 
Q 434 1759 690 2068 
Q 947 2378 1403 2484 
z
M 1172 3481 
Q 1172 3119 1398 2916 
Q 1625 2713 2034 2713 
Q 2441 2713 2670 2916 
Q 2900 3119 2900 3481 
Q 2900 3844 2670 4047 
Q 2441 4250 2034 4250 
Q 1625 4250 1398 4047 
Q 1172 3844 1172 3481 
z
" transform="scale(0.015625)"/>
        <path id="DejaVuSans-30" d="M 2034 4250 
Q 1547 4250 1301 3770 
Q 1056 3291 1056 2328 
Q 1056 1369 1301 889 
Q 1547 409 2034 409 
Q 2525 409 2770 889 
Q 3016 1369 3016 2328 
Q 3016 3291 2770 3770 
Q 2525 4250 2034 4250 
z
M 2034 4750 
Q 2819 4750 3233 4129 
Q 3647 3509 3647 2328 
Q 3647 1150 3233 529 
Q 2819 -91 2034 -91 
Q 1250 -91 836 529 
Q 422 1150 422 2328 
Q 422 3509 836 4129 
Q 1250 4750 2034 4750 
z
" transform="scale(0.015625)"/>
       </defs>
       <use xlink:href="#DejaVuSans-2212"/>
       <use xlink:href="#DejaVuSans-31" x="83.789062"/>
       <use xlink:href="#DejaVuSans-38" x="147.412109"/>
       <use xlink:href="#DejaVuSans-30" x="211.035156"/>
      </g>
     </g>
    </g>
    <g id="xtick_2">
     <g id="line2d_2">
      <g>
       <use xlink:href="#m856cefc23b" x="102.24" y="307.584" style="stroke: #000000; stroke-width: 0.8"/>
      </g>
     </g>
     <g id="text_2">
      <!-- −135 -->
      <g transform="translate(88.506406 322.182437) scale(0.1 -0.1)">
       <defs>
        <path id="DejaVuSans-33" d="M 2597 2516 
Q 3050 2419 3304 2112 
Q 3559 1806 3559 1356 
Q 3559 666 3084 287 
Q 2609 -91 1734 -91 
Q 1441 -91 1130 -33 
Q 819 25 488 141 
L 488 750 
Q 750 597 1062 519 
Q 1375 441 1716 441 
Q 2309 441 2620 675 
Q 2931 909 2931 1356 
Q 2931 1769 2642 2001 
Q 2353 2234 1838 2234 
L 1294 2234 
L 1294 2753 
L 1863 2753 
Q 2328 2753 2575 2939 
Q 2822 3125 2822 3475 
Q 2822 3834 2567 4026 
Q 2313 4219 1838 4219 
Q 1578 4219 1281 4162 
Q 984 4106 628 3988 
L 628 4550 
Q 988 4650 1302 4700 
Q 1616 4750 1894 4750 
Q 2613 4750 3031 4423 
Q 3450 4097 3450 3541 
Q 3450 3153 3228 2886 
Q 3006 2619 2597 2516 
z
" transform="scale(0.015625)"/>
        <path id="DejaVuSans-35" d="M 691 4666 
L 3169 4666 
L 3169 4134 
L 1269 4134 
L 1269 2991 
Q 1406 3038 1543 3061 
Q 1681 3084 1819 3084 
Q 2600 3084 3056 2656 
Q 3513 2228 3513 1497 
Q 3513 744 3044 326 
Q 2575 -91 1722 -91 
Q 1428 -91 1123 -41 
Q 819 9 494 109 
L 494 744 
Q 775 591 1075 516 
Q 1375 441 1709 441 
Q 2250 441 2565 725 
Q 2881 1009 2881 1497 
Q 2881 1984 2565 2268 
Q 2250 2553 1709 2553 
Q 1456 2553 1204 2497 
Q 953 2441 691 2322 
L 691 4666 
z
" transform="scale(0.015625)"/>
       </defs>
       <use xlink:href="#DejaVuSans-2212"/>
       <use xlink:href="#DejaVuSans-31" x="83.789062"/>
       <use xlink:href="#DejaVuSans-33" x="147.412109"/>
       <use xlink:href="#DejaVuSans-35" x="211.035156"/>
      </g>
     </g>
    </g>
    <g id="xtick_3">
     <g id="line2d_3">
      <g>
       <use xlink:href="#m856cefc23b" x="146.88" y="307.584" style="stroke: #000000; stroke-width: 0.8"/>
      </g>
     </g>
     <g id="text_3">
      <!-- −90 -->
      <g transform="translate(136.327656 322.182437) scale(0.1 -0.1)">
       <defs>
        <path id="DejaVuSans-39" d="M 703 97 
L 703 672 
Q 941 559 1184 500 
Q 1428 441 1663 441 
Q 2288 441 2617 861 
Q 2947 1281 2994 2138 
Q 2813 1869 2534 1725 
Q 2256 1581 1919 1581 
Q 1219 1581 811 2004 
Q 403 2428 403 3163 
Q 403 3881 828 4315 
Q 1253 4750 1959 4750 
Q 2769 4750 3195 4129 
Q 3622 3509 3622 2328 
Q 3622 1225 3098 567 
Q 2575 -91 1691 -91 
Q 1453 -91 1209 -44 
Q 966 3 703 97 
z
M 1959 2075 
Q 2384 2075 2632 2365 
Q 2881 2656 2881 3163 
Q 2881 3666 2632 3958 
Q 2384 4250 1959 4250 
Q 1534 4250 1286 3958 
Q 1038 3666 1038 3163 
Q 1038 2656 1286 2365 
Q 1534 2075 1959 2075 
z
" transform="scale(0.015625)"/>
       </defs>
       <use xlink:href="#DejaVuSans-2212"/>
       <use xlink:href="#DejaVuSans-39" x="83.789062"/>
       <use xlink:href="#DejaVuSans-30" x="147.412109"/>
      </g>
     </g>
    </g>
    <g id="xtick_4">
     <g id="line2d_4">
      <g>
       <use xlink:href="#m856cefc23b" x="191.52" y="307.584" style="stroke: #000000; stroke-width: 0.8"/>
      </g>
     </g>
     <g id="text_4">
      <!-- −45 -->
      <g transform="translate(180.967656 322.182437) scale(0.1 -0.1)">
       <defs>
        <path id="DejaVuSans-34" d="M 2419 4116 
L 825 1625 
L 2419 1625 
L 2419 4116 
z
M 2253 4666 
L 3047 4666 
L 3047 1625 
L 3713 1625 
L 3713 1100 
L 3047 1100 
L 3047 0 
L 2419 0 
L 2419 1100 
L 313 1100 
L 313 1709 
L 2253 4666 
z
" transform="scale(0.015625)"/>
       </defs>
       <use xlink:href="#DejaVuSans-2212"/>
       <use xlink:href="#DejaVuSans-34" x="83.789062"/>
       <use xlink:href="#DejaVuSans-35" x="147.412109"/>
      </g>
     </g>
    </g>
    <g id="xtick_5">
     <g id="line2d_5">
      <g>
       <use xlink:href="#m856cefc23b" x="236.16" y="307.584" style="stroke: #000000; stroke-width: 0.8"/>
      </g>
     </g>
     <g id="text_5">
      <!-- 0 -->
      <g transform="translate(232.97875 322.182437) scale(0.1 -0.1)">
       <use xlink:href="#DejaVuSans-30"/>
      </g>
     </g>
    </g>
    <g id="xtick_6">
     <g id="line2d_6">
      <g>
       <use xlink:href="#m856cefc23b" x="280.8" y="307.584" style="stroke: #000000; stroke-width: 0.8"/>
      </g>
     </g>
     <g id="text_6">
      <!-- 45 -->
      <g transform="translate(274.4375 322.182437) scale(0.1 -0.1)">
       <use xlink:href="#DejaVuSans-34"/>
       <use xlink:href="#DejaVuSans-35" x="63.623047"/>
      </g>
     </g>
    </g>
    <g id="xtick_7">
     <g id="line2d_7">
      <g>
       <use xlink:href="#m856cefc23b" x="325.44" y="307.584" style="stroke: #000000; stroke-width: 0.8"/>
      </g>
     </g>
     <g id="text_7">
      <!-- 90 -->
      <g transform="translate(319.0775 322.182437) scale(0.1 -0.1)">
       <use xlink:href="#DejaVuSans-39"/>
       <use xlink:href="#DejaVuSans-30" x="63.623047"/>
      </g>
     </g>
    </g>
    <g id="xtick_8">
     <g id="line2d_8">
      <g>
       <use xlink:href="#m856cefc23b" x="370.08" y="307.584" style="stroke: #000000; stroke-width: 0.8"/>
      </g>
     </g>
     <g id="text_8">
      <!-- 135 -->
      <g transform="translate(360.53625 322.182437) scale(0.1 -0.1)">
       <use xlink:href="#DejaVuSans-31"/>
       <use xlink:href="#DejaVuSans-33" x="63.623047"/>
       <use xlink:href="#DejaVuSans-35" x="127.246094"/>
      </g>
     </g>
    </g>
    <g id="xtick_9">
     <g id="line2d_9">
      <g>
       <use xlink:href="#m856cefc23b" x="414.72" y="307.584" style="stroke: #000000; stroke-width: 0.8"/>
      </g>
     </g>
     <g id="text_9">
      <!-- 180 -->
      <g transform="translate(405.17625 322.182437) scale(0.1 -0.1)">
       <use xlink:href="#DejaVuSans-31"/>
       <use xlink:href="#DejaVuSans-38" x="63.623047"/>
       <use xlink:href="#DejaVuSans-30" x="127.246094"/>
      </g>
     </g>
    </g>
    <g id="text_10">
     <!-- Dihedral angle [deg] -->
     <g transform="translate(184.615469 335.860562) scale(0.1 -0.1)">
      <defs>
       <path id="DejaVuSans-44" d="M 1259 4147 
L 1259 519 
L 2022 519 
Q 2988 519 3436 956 
Q 3884 1394 3884 2338 
Q 3884 3275 3436 3711 
Q 2988 4147 2022 4147 
L 1259 4147 
z
M 628 4666 
L 1925 4666 
Q 3281 4666 3915 4102 
Q 4550 3538 4550 2338 
Q 4550 1131 3912 565 
Q 3275 0 1925 0 
L 628 0 
L 628 4666 
z
" transform="scale(0.015625)"/>
       <path id="DejaVuSans-69" d="M 603 3500 
L 1178 3500 
L 1178 0 
L 603 0 
L 603 3500 
z
M 603 4863 
L 1178 4863 
L 1178 4134 
L 603 4134 
L 603 4863 
z
" transform="scale(0.015625)"/>
       <path id="DejaVuSans-68" d="M 3513 2113 
L 3513 0 
L 2938 0 
L 2938 2094 
Q 2938 2591 2744 2837 
Q 2550 3084 2163 3084 
Q 1697 3084 1428 2787 
Q 1159 2491 1159 1978 
L 1159 0 
L 581 0 
L 581 4863 
L 1159 4863 
L 1159 2956 
Q 1366 3272 1645 3428 
Q 1925 3584 2291 3584 
Q 2894 3584 3203 3211 
Q 3513 2838 3513 2113 
z
" transform="scale(0.015625)"/>
       <path id="DejaVuSans-65" d="M 3597 1894 
L 3597 1613 
L 953 1613 
Q 991 1019 1311 708 
Q 1631 397 2203 397 
Q 2534 397 2845 478 
Q 3156 559 3463 722 
L 3463 178 
Q 3153 47 2828 -22 
Q 2503 -91 2169 -91 
Q 1331 -91 842 396 
Q 353 884 353 1716 
Q 353 2575 817 3079 
Q 1281 3584 2069 3584 
Q 2775 3584 3186 3129 
Q 3597 2675 3597 1894 
z
M 3022 2063 
Q 3016 2534 2758 2815 
Q 2500 3097 2075 3097 
Q 1594 3097 1305 2825 
Q 1016 2553 972 2059 
L 3022 2063 
z
" transform="scale(0.015625)"/>
       <path id="DejaVuSans-64" d="M 2906 2969 
L 2906 4863 
L 3481 4863 
L 3481 0 
L 2906 0 
L 2906 525 
Q 2725 213 2448 61 
Q 2172 -91 1784 -91 
Q 1150 -91 751 415 
Q 353 922 353 1747 
Q 353 2572 751 3078 
Q 1150 3584 1784 3584 
Q 2172 3584 2448 3432 
Q 2725 3281 2906 2969 
z
M 947 1747 
Q 947 1113 1208 752 
Q 1469 391 1925 391 
Q 2381 391 2643 752 
Q 2906 1113 2906 1747 
Q 2906 2381 2643 2742 
Q 2381 3103 1925 3103 
Q 1469 3103 1208 2742 
Q 947 2381 947 1747 
z
" transform="scale(0.015625)"/>
       <path id="DejaVuSans-72" d="M 2631 2963 
Q 2534 3019 2420 3045 
Q 2306 3072 2169 3072 
Q 1681 3072 1420 2755 
Q 1159 2438 1159 1844 
L 1159 0 
L 581 0 
L 581 3500 
L 1159 3500 
L 1159 2956 
Q 1341 3275 1631 3429 
Q 1922 3584 2338 3584 
Q 2397 3584 2469 3576 
Q 2541 3569 2628 3553 
L 2631 2963 
z
" transform="scale(0.015625)"/>
       <path id="DejaVuSans-61" d="M 2194 1759 
Q 1497 1759 1228 1600 
Q 959 1441 959 1056 
Q 959 750 1161 570 
Q 1363 391 1709 391 
Q 2188 391 2477 730 
Q 2766 1069 2766 1631 
L 2766 1759 
L 2194 1759 
z
M 3341 1997 
L 3341 0 
L 2766 0 
L 2766 531 
Q 2569 213 2275 61 
Q 1981 -91 1556 -91 
Q 1019 -91 701 211 
Q 384 513 384 1019 
Q 384 1609 779 1909 
Q 1175 2209 1959 2209 
L 2766 2209 
L 2766 2266 
Q 2766 2663 2505 2880 
Q 2244 3097 1772 3097 
Q 1472 3097 1187 3025 
Q 903 2953 641 2809 
L 641 3341 
Q 956 3463 1253 3523 
Q 1550 3584 1831 3584 
Q 2591 3584 2966 3190 
Q 3341 2797 3341 1997 
z
" transform="scale(0.015625)"/>
       <path id="DejaVuSans-6c" d="M 603 4863 
L 1178 4863 
L 1178 0 
L 603 0 
L 603 4863 
z
" transform="scale(0.015625)"/>
       <path id="DejaVuSans-20" transform="scale(0.015625)"/>
       <path id="DejaVuSans-6e" d="M 3513 2113 
L 3513 0 
L 2938 0 
L 2938 2094 
Q 2938 2591 2744 2837 
Q 2550 3084 2163 3084 
Q 1697 3084 1428 2787 
Q 1159 2491 1159 1978 
L 1159 0 
L 581 0 
L 581 3500 
L 1159 3500 
L 1159 2956 
Q 1366 3272 1645 3428 
Q 1925 3584 2291 3584 
Q 2894 3584 3203 3211 
Q 3513 2838 3513 2113 
z
" transform="scale(0.015625)"/>
       <path id="DejaVuSans-67" d="M 2906 1791 
Q 2906 2416 2648 2759 
Q 2391 3103 1925 3103 
Q 1463 3103 1205 2759 
Q 947 2416 947 1791 
Q 947 1169 1205 825 
Q 1463 481 1925 481 
Q 2391 481 2648 825 
Q 2906 1169 2906 1791 
z
M 3481 434 
Q 3481 -459 3084 -895 
Q 2688 -1331 1869 -1331 
Q 1566 -1331 1297 -1286 
Q 1028 -1241 775 -1147 
L 775 -588 
Q 1028 -725 1275 -790 
Q 1522 -856 1778 -856 
Q 2344 -856 2625 -561 
Q 2906 -266 2906 331 
L 2906 616 
Q 2728 306 2450 153 
Q 2172 0 1784 0 
Q 1141 0 747 490 
Q 353 981 353 1791 
Q 353 2603 747 3093 
Q 1141 3584 1784 3584 
Q 2172 3584 2450 3431 
Q 2728 3278 2906 2969 
L 2906 3500 
L 3481 3500 
L 3481 434 
z
" transform="scale(0.015625)"/>
       <path id="DejaVuSans-5b" d="M 550 4863 
L 1875 4863 
L 1875 4416 
L 1125 4416 
L 1125 -397 
L 1875 -397 
L 1875 -844 
L 550 -844 
L 550 4863 
z
" transform="scale(0.015625)"/>
       <path id="DejaVuSans-5d" d="M 1947 4863 
L 1947 -844 
L 622 -844 
L 622 -397 
L 1369 -397 
L 1369 4416 
L 622 4416 
L 622 4863 
L 1947 4863 
z
" transform="scale(0.015625)"/>
      </defs>
      <use xlink:href="#DejaVuSans-44"/>
      <use xlink:href="#DejaVuSans-69" x="77.001953"/>
      <use xlink:href="#DejaVuSans-68" x="104.785156"/>
      <use xlink:href="#DejaVuSans-65" x="168.164062"/>
      <use xlink:href="#DejaVuSans-64" x="229.6875"/>
      <use xlink:href="#DejaVuSans-72" x="293.164062"/>
      <use xlink:href="#DejaVuSans-61" x="334.277344"/>
      <use xlink:href="#DejaVuSans-6c" x="395.556641"/>
      <use xlink:href="#DejaVuSans-20" x="423.339844"/>
      <use xlink:href="#DejaVuSans-61" x="455.126953"/>
      <use xlink:href="#DejaVuSans-6e" x="516.40625"/>
      <use xlink:href="#DejaVuSans-67" x="579.785156"/>
      <use xlink:href="#DejaVuSans-6c" x="643.261719"/>
      <use xlink:href="#DejaVuSans-65" x="671.044922"/>
      <use xlink:href="#DejaVuSans-20" x="732.568359"/>
      <use xlink:href="#DejaVuSans-5b" x="764.355469"/>
      <use xlink:href="#DejaVuSans-64" x="803.369141"/>
      <use xlink:href="#DejaVuSans-65" x="866.845703"/>
      <use xlink:href="#DejaVuSans-67" x="928.369141"/>
      <use xlink:href="#DejaVuSans-5d" x="991.845703"/>
     </g>
    </g>
   </g>
   <g id="matplotlib.axis_2">
    <g id="ytick_1">
     <g id="line2d_10">
      <defs>
       <path id="m1c05234326" d="M 0 0 
L -3.5 0 
" style="stroke: #000000; stroke-width: 0.8"/>
      </defs>
      <g>
       <use xlink:href="#m1c05234326" x="57.6" y="295.488" style="stroke: #000000; stroke-width: 0.8"/>
      </g>
     </g>
     <g id="text_11">
      <!-- 0.0 -->
      <g transform="translate(34.696875 299.287219) scale(0.1 -0.1)">
       <defs>
        <path id="DejaVuSans-2e" d="M 684 794 
L 1344 794 
L 1344 0 
L 684 0 
L 684 794 
z
" transform="scale(0.015625)"/>
       </defs>
       <use xlink:href="#DejaVuSans-30"/>
       <use xlink:href="#DejaVuSans-2e" x="63.623047"/>
       <use xlink:href="#DejaVuSans-30" x="95.410156"/>
      </g>
     </g>
    </g>
    <g id="ytick_2">
     <g id="line2d_11">
      <g>
       <use xlink:href="#m1c05234326" x="57.6" y="265.134146" style="stroke: #000000; stroke-width: 0.8"/>
      </g>
     </g>
     <g id="text_12">
      <!-- 2.5 -->
      <g transform="translate(34.696875 268.933365) scale(0.1 -0.1)">
       <defs>
        <path id="DejaVuSans-32" d="M 1228 531 
L 3431 531 
L 3431 0 
L 469 0 
L 469 531 
Q 828 903 1448 1529 
Q 2069 2156 2228 2338 
Q 2531 2678 2651 2914 
Q 2772 3150 2772 3378 
Q 2772 3750 2511 3984 
Q 2250 4219 1831 4219 
Q 1534 4219 1204 4116 
Q 875 4013 500 3803 
L 500 4441 
Q 881 4594 1212 4672 
Q 1544 4750 1819 4750 
Q 2544 4750 2975 4387 
Q 3406 4025 3406 3419 
Q 3406 3131 3298 2873 
Q 3191 2616 2906 2266 
Q 2828 2175 2409 1742 
Q 1991 1309 1228 531 
z
" transform="scale(0.015625)"/>
       </defs>
       <use xlink:href="#DejaVuSans-32"/>
       <use xlink:href="#DejaVuSans-2e" x="63.623047"/>
       <use xlink:href="#DejaVuSans-35" x="95.410156"/>
      </g>
     </g>
    </g>
    <g id="ytick_3">
     <g id="line2d_12">
      <g>
       <use xlink:href="#m1c05234326" x="57.6" y="234.780292" style="stroke: #000000; stroke-width: 0.8"/>
      </g>
     </g>
     <g id="text_13">
      <!-- 5.0 -->
      <g transform="translate(34.696875 238.579511) scale(0.1 -0.1)">
       <use xlink:href="#DejaVuSans-35"/>
       <use xlink:href="#DejaVuSans-2e" x="63.623047"/>
       <use xlink:href="#DejaVuSans-30" x="95.410156"/>
      </g>
     </g>
    </g>
    <g id="ytick_4">
     <g id="line2d_13">
      <g>
       <use xlink:href="#m1c05234326" x="57.6" y="204.426438" style="stroke: #000000; stroke-width: 0.8"/>
      </g>
     </g>
     <g id="text_14">
      <!-- 7.5 -->
      <g transform="translate(34.696875 208.225657) scale(0.1 -0.1)">
       <defs>
        <path id="DejaVuSans-37" d="M 525 4666 
L 3525 4666 
L 3525 4397 
L 1831 0 
L 1172 0 
L 2766 4134 
L 525 4134 
L 525 4666 
z
" transform="scale(0.015625)"/>
       </defs>
       <use xlink:href="#DejaVuSans-37"/>
       <use xlink:href="#DejaVuSans-2e" x="63.623047"/>
       <use xlink:href="#DejaVuSans-35" x="95.410156"/>
      </g>
     </g>
    </g>
    <g id="ytick_5">
     <g id="line2d_14">
      <g>
       <use xlink:href="#m1c05234326" x="57.6" y="174.072584" style="stroke: #000000; stroke-width: 0.8"/>
      </g>
     </g>
     <g id="text_15">
      <!-- 10.0 -->
      <g transform="translate(28.334375 177.871803) scale(0.1 -0.1)">
       <use xlink:href="#DejaVuSans-31"/>
       <use xlink:href="#DejaVuSans-30" x="63.623047"/>
       <use xlink:href="#DejaVuSans-2e" x="127.246094"/>
       <use xlink:href="#DejaVuSans-30" x="159.033203"/>
      </g>
     </g>
    </g>
    <g id="ytick_6">
     <g id="line2d_15">
      <g>
       <use xlink:href="#m1c05234326" x="57.6" y="143.71873" style="stroke: #000000; stroke-width: 0.8"/>
      </g>
     </g>
     <g id="text_16">
      <!-- 12.5 -->
      <g transform="translate(28.334375 147.517949) scale(0.1 -0.1)">
       <use xlink:href="#DejaVuSans-31"/>
       <use xlink:href="#DejaVuSans-32" x="63.623047"/>
       <use xlink:href="#DejaVuSans-2e" x="127.246094"/>
       <use xlink:href="#DejaVuSans-35" x="159.033203"/>
      </g>
     </g>
    </g>
    <g id="ytick_7">
     <g id="line2d_16">
      <g>
       <use xlink:href="#m1c05234326" x="57.6" y="113.364876" style="stroke: #000000; stroke-width: 0.8"/>
      </g>
     </g>
     <g id="text_17">
      <!-- 15.0 -->
      <g transform="translate(28.334375 117.164095) scale(0.1 -0.1)">
       <use xlink:href="#DejaVuSans-31"/>
       <use xlink:href="#DejaVuSans-35" x="63.623047"/>
       <use xlink:href="#DejaVuSans-2e" x="127.246094"/>
       <use xlink:href="#DejaVuSans-30" x="159.033203"/>
      </g>
     </g>
    </g>
    <g id="ytick_8">
     <g id="line2d_17">
      <g>
       <use xlink:href="#m1c05234326" x="57.6" y="83.011022" style="stroke: #000000; stroke-width: 0.8"/>
      </g>
     </g>
     <g id="text_18">
      <!-- 17.5 -->
      <g transform="translate(28.334375 86.810241) scale(0.1 -0.1)">
       <use xlink:href="#DejaVuSans-31"/>
       <use xlink:href="#DejaVuSans-37" x="63.623047"/>
       <use xlink:href="#DejaVuSans-2e" x="127.246094"/>
       <use xlink:href="#DejaVuSans-35" x="159.033203"/>
      </g>
     </g>
    </g>
    <g id="ytick_9">
     <g id="line2d_18">
      <g>
       <use xlink:href="#m1c05234326" x="57.6" y="52.657168" style="stroke: #000000; stroke-width: 0.8"/>
      </g>
     </g>
     <g id="text_19">
      <!-- 20.0 -->
      <g transform="translate(28.334375 56.456387) scale(0.1 -0.1)">
       <use xlink:href="#DejaVuSans-32"/>
       <use xlink:href="#DejaVuSans-30" x="63.623047"/>
       <use xlink:href="#DejaVuSans-2e" x="127.246094"/>
       <use xlink:href="#DejaVuSans-30" x="159.033203"/>
      </g>
     </g>
    </g>
    <g id="text_20">
     <!-- Energy [kcal/mol] -->
     <g transform="translate(22.254687 218.625656) rotate(-90) scale(0.1 -0.1)">
      <defs>
       <path id="DejaVuSans-45" d="M 628 4666 
L 3578 4666 
L 3578 4134 
L 1259 4134 
L 1259 2753 
L 3481 2753 
L 3481 2222 
L 1259 2222 
L 1259 531 
L 3634 531 
L 3634 0 
L 628 0 
L 628 4666 
z
" transform="scale(0.015625)"/>
       <path id="DejaVuSans-79" d="M 2059 -325 
Q 1816 -950 1584 -1140 
Q 1353 -1331 966 -1331 
L 506 -1331 
L 506 -850 
L 844 -850 
Q 1081 -850 1212 -737 
Q 1344 -625 1503 -206 
L 1606 56 
L 191 3500 
L 800 3500 
L 1894 763 
L 2988 3500 
L 3597 3500 
L 2059 -325 
z
" transform="scale(0.015625)"/>
       <path id="DejaVuSans-6b" d="M 581 4863 
L 1159 4863 
L 1159 1991 
L 2875 3500 
L 3609 3500 
L 1753 1863 
L 3688 0 
L 2938 0 
L 1159 1709 
L 1159 0 
L 581 0 
L 581 4863 
z
" transform="scale(0.015625)"/>
       <path id="DejaVuSans-63" d="M 3122 3366 
L 3122 2828 
Q 2878 2963 2633 3030 
Q 2388 3097 2138 3097 
Q 1578 3097 1268 2742 
Q 959 2388 959 1747 
Q 959 1106 1268 751 
Q 1578 397 2138 397 
Q 2388 397 2633 464 
Q 2878 531 3122 666 
L 3122 134 
Q 2881 22 2623 -34 
Q 2366 -91 2075 -91 
Q 1284 -91 818 406 
Q 353 903 353 1747 
Q 353 2603 823 3093 
Q 1294 3584 2113 3584 
Q 2378 3584 2631 3529 
Q 2884 3475 3122 3366 
z
" transform="scale(0.015625)"/>
       <path id="DejaVuSans-2f" d="M 1625 4666 
L 2156 4666 
L 531 -594 
L 0 -594 
L 1625 4666 
z
" transform="scale(0.015625)"/>
       <path id="DejaVuSans-6d" d="M 3328 2828 
Q 3544 3216 3844 3400 
Q 4144 3584 4550 3584 
Q 5097 3584 5394 3201 
Q 5691 2819 5691 2113 
L 5691 0 
L 5113 0 
L 5113 2094 
Q 5113 2597 4934 2840 
Q 4756 3084 4391 3084 
Q 3944 3084 3684 2787 
Q 3425 2491 3425 1978 
L 3425 0 
L 2847 0 
L 2847 2094 
Q 2847 2600 2669 2842 
Q 2491 3084 2119 3084 
Q 1678 3084 1418 2786 
Q 1159 2488 1159 1978 
L 1159 0 
L 581 0 
L 581 3500 
L 1159 3500 
L 1159 2956 
Q 1356 3278 1631 3431 
Q 1906 3584 2284 3584 
Q 2666 3584 2933 3390 
Q 3200 3197 3328 2828 
z
" transform="scale(0.015625)"/>
       <path id="DejaVuSans-6f" d="M 1959 3097 
Q 1497 3097 1228 2736 
Q 959 2375 959 1747 
Q 959 1119 1226 758 
Q 1494 397 1959 397 
Q 2419 397 2687 759 
Q 2956 1122 2956 1747 
Q 2956 2369 2687 2733 
Q 2419 3097 1959 3097 
z
M 1959 3584 
Q 2709 3584 3137 3096 
Q 3566 2609 3566 1747 
Q 3566 888 3137 398 
Q 2709 -91 1959 -91 
Q 1206 -91 779 398 
Q 353 888 353 1747 
Q 353 2609 779 3096 
Q 1206 3584 1959 3584 
z
" transform="scale(0.015625)"/>
      </defs>
      <use xlink:href="#DejaVuSans-45"/>
      <use xlink:href="#DejaVuSans-6e" x="63.183594"/>
      <use xlink:href="#DejaVuSans-65" x="126.5625"/>
      <use xlink:href="#DejaVuSans-72" x="188.085938"/>
      <use xlink:href="#DejaVuSans-67" x="227.449219"/>
      <use xlink:href="#DejaVuSans-79" x="290.925781"/>
      <use xlink:href="#DejaVuSans-20" x="350.105469"/>
      <use xlink:href="#DejaVuSans-5b" x="381.892578"/>
      <use xlink:href="#DejaVuSans-6b" x="420.90625"/>
      <use xlink:href="#DejaVuSans-63" x="478.816406"/>
      <use xlink:href="#DejaVuSans-61" x="533.796875"/>
      <use xlink:href="#DejaVuSans-6c" x="595.076172"/>
      <use xlink:href="#DejaVuSans-2f" x="622.859375"/>
      <use xlink:href="#DejaVuSans-6d" x="656.550781"/>
      <use xlink:href="#DejaVuSans-6f" x="753.962891"/>
      <use xlink:href="#DejaVuSans-6c" x="815.144531"/>
      <use xlink:href="#DejaVuSans-5d" x="842.927734"/>
     </g>
    </g>
   </g>
   <g id="line2d_19">
    <path d="M 47.679987 191.392116 
L 57.600006 213.247048 
L 67.519985 233.049052 
L 77.439991 247.820292 
L 87.359998 258.995441 
L 97.280052 270.172127 
L 107.200001 281.128558 
L 117.119949 290.294866 
L 127.039986 295.488 
L 136.960027 287.851838 
L 146.880006 271.32178 
L 156.80005 280.707343 
L 166.720029 261.11646 
L 176.639986 225.11349 
L 186.560003 174.113899 
L 196.47996 198.720619 
L 206.399986 179.704027 
L 216.320007 150.056299 
L 226.240014 78.548069 
L 236.159991 104.642302 
L 246.079998 145.28835 
L 256.000023 191.440055 
L 265.919991 231.712985 
L 275.840006 260.048274 
L 285.759953 274.580403 
L 295.680028 279.994043 
L 305.599941 273.146597 
L 315.519983 265.100974 
L 325.439963 248.019258 
L 335.360012 217.270355 
L 345.279993 179.535454 
L 355.200043 139.191073 
L 365.119972 92.725953 
L 375.040031 84.814603 
L 384.959979 143.375742 
L 394.880008 165.5686 
L 404.799987 191.392116 
L 414.720006 213.247048 
" clip-path="url(#p0e161ae923)" style="fill: none; stroke: #ff0000; stroke-width: 3; stroke-linecap: square"/>
    <defs>
     <path id="mdab7a4d6b1" d="M 0 3 
C 0.795609 3 1.55874 2.683901 2.12132 2.12132 
C 2.683901 1.55874 3 0.795609 3 0 
C 3 -0.795609 2.683901 -1.55874 2.12132 -2.12132 
C 1.55874 -2.683901 0.795609 -3 0 -3 
C -0.795609 -3 -1.55874 -2.683901 -2.12132 -2.12132 
C -2.683901 -1.55874 -3 -0.795609 -3 0 
C -3 0.795609 -2.683901 1.55874 -2.12132 2.12132 
C -1.55874 2.683901 -0.795609 3 0 3 
z
" style="stroke: #ff0000"/>
    </defs>
    <g clip-path="url(#p0e161ae923)">
     <use xlink:href="#mdab7a4d6b1" x="47.679987" y="191.392116" style="fill: #ff0000; stroke: #ff0000"/>
     <use xlink:href="#mdab7a4d6b1" x="57.600006" y="213.247048" style="fill: #ff0000; stroke: #ff0000"/>
     <use xlink:href="#mdab7a4d6b1" x="67.519985" y="233.049052" style="fill: #ff0000; stroke: #ff0000"/>
     <use xlink:href="#mdab7a4d6b1" x="77.439991" y="247.820292" style="fill: #ff0000; stroke: #ff0000"/>
     <use xlink:href="#mdab7a4d6b1" x="87.359998" y="258.995441" style="fill: #ff0000; stroke: #ff0000"/>
     <use xlink:href="#mdab7a4d6b1" x="97.280052" y="270.172127" style="fill: #ff0000; stroke: #ff0000"/>
     <use xlink:href="#mdab7a4d6b1" x="107.200001" y="281.128558" style="fill: #ff0000; stroke: #ff0000"/>
     <use xlink:href="#mdab7a4d6b1" x="117.119949" y="290.294866" style="fill: #ff0000; stroke: #ff0000"/>
     <use xlink:href="#mdab7a4d6b1" x="127.039986" y="295.488" style="fill: #ff0000; stroke: #ff0000"/>
     <use xlink:href="#mdab7a4d6b1" x="136.960027" y="287.851838" style="fill: #ff0000; stroke: #ff0000"/>
     <use xlink:href="#mdab7a4d6b1" x="146.880006" y="271.32178" style="fill: #ff0000; stroke: #ff0000"/>
     <use xlink:href="#mdab7a4d6b1" x="156.80005" y="280.707343" style="fill: #ff0000; stroke: #ff0000"/>
     <use xlink:href="#mdab7a4d6b1" x="166.720029" y="261.11646" style="fill: #ff0000; stroke: #ff0000"/>
     <use xlink:href="#mdab7a4d6b1" x="176.639986" y="225.11349" style="fill: #ff0000; stroke: #ff0000"/>
     <use xlink:href="#mdab7a4d6b1" x="186.560003" y="174.113899" style="fill: #ff0000; stroke: #ff0000"/>
     <use xlink:href="#mdab7a4d6b1" x="196.47996" y="198.720619" style="fill: #ff0000; stroke: #ff0000"/>
     <use xlink:href="#mdab7a4d6b1" x="206.399986" y="179.704027" style="fill: #ff0000; stroke: #ff0000"/>
     <use xlink:href="#mdab7a4d6b1" x="216.320007" y="150.056299" style="fill: #ff0000; stroke: #ff0000"/>
     <use xlink:href="#mdab7a4d6b1" x="226.240014" y="78.548069" style="fill: #ff0000; stroke: #ff0000"/>
     <use xlink:href="#mdab7a4d6b1" x="236.159991" y="104.642302" style="fill: #ff0000; stroke: #ff0000"/>
     <use xlink:href="#mdab7a4d6b1" x="246.079998" y="145.28835" style="fill: #ff0000; stroke: #ff0000"/>
     <use xlink:href="#mdab7a4d6b1" x="256.000023" y="191.440055" style="fill: #ff0000; stroke: #ff0000"/>
     <use xlink:href="#mdab7a4d6b1" x="265.919991" y="231.712985" style="fill: #ff0000; stroke: #ff0000"/>
     <use xlink:href="#mdab7a4d6b1" x="275.840006" y="260.048274" style="fill: #ff0000; stroke: #ff0000"/>
     <use xlink:href="#mdab7a4d6b1" x="285.759953" y="274.580403" style="fill: #ff0000; stroke: #ff0000"/>
     <use xlink:href="#mdab7a4d6b1" x="295.680028" y="279.994043" style="fill: #ff0000; stroke: #ff0000"/>
     <use xlink:href="#mdab7a4d6b1" x="305.599941" y="273.146597" style="fill: #ff0000; stroke: #ff0000"/>
     <use xlink:href="#mdab7a4d6b1" x="315.519983" y="265.100974" style="fill: #ff0000; stroke: #ff0000"/>
     <use xlink:href="#mdab7a4d6b1" x="325.439963" y="248.019258" style="fill: #ff0000; stroke: #ff0000"/>
     <use xlink:href="#mdab7a4d6b1" x="335.360012" y="217.270355" style="fill: #ff0000; stroke: #ff0000"/>
     <use xlink:href="#mdab7a4d6b1" x="345.279993" y="179.535454" style="fill: #ff0000; stroke: #ff0000"/>
     <use xlink:href="#mdab7a4d6b1" x="355.200043" y="139.191073" style="fill: #ff0000; stroke: #ff0000"/>
     <use xlink:href="#mdab7a4d6b1" x="365.119972" y="92.725953" style="fill: #ff0000; stroke: #ff0000"/>
     <use xlink:href="#mdab7a4d6b1" x="375.040031" y="84.814603" style="fill: #ff0000; stroke: #ff0000"/>
     <use xlink:href="#mdab7a4d6b1" x="384.959979" y="143.375742" style="fill: #ff0000; stroke: #ff0000"/>
     <use xlink:href="#mdab7a4d6b1" x="394.880008" y="165.5686" style="fill: #ff0000; stroke: #ff0000"/>
     <use xlink:href="#mdab7a4d6b1" x="404.799987" y="191.392116" style="fill: #ff0000; stroke: #ff0000"/>
     <use xlink:href="#mdab7a4d6b1" x="414.720006" y="213.247048" style="fill: #ff0000; stroke: #ff0000"/>
    </g>
   </g>
   <g id="line2d_20">
    <path d="M 47.679987 179.733443 
L 57.600006 206.305855 
L 67.519985 229.353627 
L 77.439991 248.273988 
L 87.359998 262.433739 
L 97.280052 272.278546 
L 107.200001 279.841524 
L 117.119949 287.846739 
L 127.039986 295.028807 
L 136.960027 295.488 
L 146.880006 287.252182 
L 156.80005 281.352045 
L 166.720029 260.195898 
L 176.639986 219.863284 
L 186.560003 160.522059 
L 196.47996 239.303998 
L 206.399986 202.440805 
L 216.320007 158.56409 
L 226.240014 53.568 
L 236.159991 90.083536 
L 246.079998 132.748701 
L 256.000023 177.741349 
L 265.919991 219.698943 
L 275.840006 253.25331 
L 285.759953 274.539228 
L 295.680028 281.929921 
L 305.599941 271.335478 
L 315.519983 255.315217 
L 325.439963 232.428538 
L 335.360012 204.018688 
L 345.279993 171.205916 
L 355.200043 133.283993 
L 365.119972 88.537882 
L 375.040031 55.199894 
L 384.959979 121.640374 
L 394.880008 151.008323 
L 404.799987 179.733443 
L 414.720006 206.305855 
" clip-path="url(#p0e161ae923)" style="fill: none; stroke: #008000; stroke-width: 2; stroke-linecap: square"/>
    <defs>
     <path id="mb24912b8ca" d="M 0 3 
C 0.795609 3 1.55874 2.683901 2.12132 2.12132 
C 2.683901 1.55874 3 0.795609 3 0 
C 3 -0.795609 2.683901 -1.55874 2.12132 -2.12132 
C 1.55874 -2.683901 0.795609 -3 0 -3 
C -0.795609 -3 -1.55874 -2.683901 -2.12132 -2.12132 
C -2.683901 -1.55874 -3 -0.795609 -3 0 
C -3 0.795609 -2.683901 1.55874 -2.12132 2.12132 
C -1.55874 2.683901 -0.795609 3 0 3 
z
" style="stroke: #008000"/>
    </defs>
    <g clip-path="url(#p0e161ae923)">
     <use xlink:href="#mb24912b8ca" x="47.679987" y="179.733443" style="fill: #008000; stroke: #008000"/>
     <use xlink:href="#mb24912b8ca" x="57.600006" y="206.305855" style="fill: #008000; stroke: #008000"/>
     <use xlink:href="#mb24912b8ca" x="67.519985" y="229.353627" style="fill: #008000; stroke: #008000"/>
     <use xlink:href="#mb24912b8ca" x="77.439991" y="248.273988" style="fill: #008000; stroke: #008000"/>
     <use xlink:href="#mb24912b8ca" x="87.359998" y="262.433739" style="fill: #008000; stroke: #008000"/>
     <use xlink:href="#mb24912b8ca" x="97.280052" y="272.278546" style="fill: #008000; stroke: #008000"/>
     <use xlink:href="#mb24912b8ca" x="107.200001" y="279.841524" style="fill: #008000; stroke: #008000"/>
     <use xlink:href="#mb24912b8ca" x="117.119949" y="287.846739" style="fill: #008000; stroke: #008000"/>
     <use xlink:href="#mb24912b8ca" x="127.039986" y="295.028807" style="fill: #008000; stroke: #008000"/>
     <use xlink:href="#mb24912b8ca" x="136.960027" y="295.488" style="fill: #008000; stroke: #008000"/>
     <use xlink:href="#mb24912b8ca" x="146.880006" y="287.252182" style="fill: #008000; stroke: #008000"/>
     <use xlink:href="#mb24912b8ca" x="156.80005" y="281.352045" style="fill: #008000; stroke: #008000"/>
     <use xlink:href="#mb24912b8ca" x="166.720029" y="260.195898" style="fill: #008000; stroke: #008000"/>
     <use xlink:href="#mb24912b8ca" x="176.639986" y="219.863284" style="fill: #008000; stroke: #008000"/>
     <use xlink:href="#mb24912b8ca" x="186.560003" y="160.522059" style="fill: #008000; stroke: #008000"/>
     <use xlink:href="#mb24912b8ca" x="196.47996" y="239.303998" style="fill: #008000; stroke: #008000"/>
     <use xlink:href="#mb24912b8ca" x="206.399986" y="202.440805" style="fill: #008000; stroke: #008000"/>
     <use xlink:href="#mb24912b8ca" x="216.320007" y="158.56409" style="fill: #008000; stroke: #008000"/>
     <use xlink:href="#mb24912b8ca" x="226.240014" y="53.568" style="fill: #008000; stroke: #008000"/>
     <use xlink:href="#mb24912b8ca" x="236.159991" y="90.083536" style="fill: #008000; stroke: #008000"/>
     <use xlink:href="#mb24912b8ca" x="246.079998" y="132.748701" style="fill: #008000; stroke: #008000"/>
     <use xlink:href="#mb24912b8ca" x="256.000023" y="177.741349" style="fill: #008000; stroke: #008000"/>
     <use xlink:href="#mb24912b8ca" x="265.919991" y="219.698943" style="fill: #008000; stroke: #008000"/>
     <use xlink:href="#mb24912b8ca" x="275.840006" y="253.25331" style="fill: #008000; stroke: #008000"/>
     <use xlink:href="#mb24912b8ca" x="285.759953" y="274.539228" style="fill: #008000; stroke: #008000"/>
     <use xlink:href="#mb24912b8ca" x="295.680028" y="281.929921" style="fill: #008000; stroke: #008000"/>
     <use xlink:href="#mb24912b8ca" x="305.599941" y="271.335478" style="fill: #008000; stroke: #008000"/>
     <use xlink:href="#mb24912b8ca" x="315.519983" y="255.315217" style="fill: #008000; stroke: #008000"/>
     <use xlink:href="#mb24912b8ca" x="325.439963" y="232.428538" style="fill: #008000; stroke: #008000"/>
     <use xlink:href="#mb24912b8ca" x="335.360012" y="204.018688" style="fill: #008000; stroke: #008000"/>
     <use xlink:href="#mb24912b8ca" x="345.279993" y="171.205916" style="fill: #008000; stroke: #008000"/>
     <use xlink:href="#mb24912b8ca" x="355.200043" y="133.283993" style="fill: #008000; stroke: #008000"/>
     <use xlink:href="#mb24912b8ca" x="365.119972" y="88.537882" style="fill: #008000; stroke: #008000"/>
     <use xlink:href="#mb24912b8ca" x="375.040031" y="55.199894" style="fill: #008000; stroke: #008000"/>
     <use xlink:href="#mb24912b8ca" x="384.959979" y="121.640374" style="fill: #008000; stroke: #008000"/>
     <use xlink:href="#mb24912b8ca" x="394.880008" y="151.008323" style="fill: #008000; stroke: #008000"/>
     <use xlink:href="#mb24912b8ca" x="404.799987" y="179.733443" style="fill: #008000; stroke: #008000"/>
     <use xlink:href="#mb24912b8ca" x="414.720006" y="206.305855" style="fill: #008000; stroke: #008000"/>
    </g>
   </g>
   <g id="line2d_21">
    <path d="M 47.679987 194.369417 
L 57.600006 216.546054 
L 67.519985 232.886743 
L 77.439991 245.996406 
L 87.359998 257.864335 
L 97.280052 270.763935 
L 107.200001 282.74971 
L 117.119949 291.636808 
L 127.039986 295.488 
L 136.960027 287.721802 
L 146.880006 276.004222 
L 156.80005 279.263376 
L 166.720029 260.400836 
L 176.639986 221.166223 
L 186.560003 162.279479 
L 196.47996 216.034183 
L 206.399986 173.204186 
L 216.320007 136.576994 
L 226.240014 64.357443 
L 236.159991 108.85711 
L 246.079998 153.733312 
L 256.000023 194.938988 
L 265.919991 231.153851 
L 275.840006 259.749601 
L 285.759953 275.932433 
L 295.680028 274.683472 
L 305.599941 279.2647 
L 315.519983 262.223134 
L 325.439963 241.7949 
L 335.360012 216.89384 
L 345.279993 187.516353 
L 355.200043 150.057986 
L 365.119972 100.667352 
L 375.040031 60.489859 
L 384.959979 138.328471 
L 394.880008 164.764403 
L 404.799987 194.369417 
L 414.720006 216.546054 
" clip-path="url(#p0e161ae923)" style="fill: none; stroke: #0000ff; stroke-width: 2; stroke-linecap: square"/>
    <defs>
     <path id="m4163def812" d="M 0 3 
C 0.795609 3 1.55874 2.683901 2.12132 2.12132 
C 2.683901 1.55874 3 0.795609 3 0 
C 3 -0.795609 2.683901 -1.55874 2.12132 -2.12132 
C 1.55874 -2.683901 0.795609 -3 0 -3 
C -0.795609 -3 -1.55874 -2.683901 -2.12132 -2.12132 
C -2.683901 -1.55874 -3 -0.795609 -3 0 
C -3 0.795609 -2.683901 1.55874 -2.12132 2.12132 
C -1.55874 2.683901 -0.795609 3 0 3 
z
" style="stroke: #0000ff"/>
    </defs>
    <g clip-path="url(#p0e161ae923)">
     <use xlink:href="#m4163def812" x="47.679987" y="194.369417" style="fill: #0000ff; stroke: #0000ff"/>
     <use xlink:href="#m4163def812" x="57.600006" y="216.546054" style="fill: #0000ff; stroke: #0000ff"/>
     <use xlink:href="#m4163def812" x="67.519985" y="232.886743" style="fill: #0000ff; stroke: #0000ff"/>
     <use xlink:href="#m4163def812" x="77.439991" y="245.996406" style="fill: #0000ff; stroke: #0000ff"/>
     <use xlink:href="#m4163def812" x="87.359998" y="257.864335" style="fill: #0000ff; stroke: #0000ff"/>
     <use xlink:href="#m4163def812" x="97.280052" y="270.763935" style="fill: #0000ff; stroke: #0000ff"/>
     <use xlink:href="#m4163def812" x="107.200001" y="282.74971" style="fill: #0000ff; stroke: #0000ff"/>
     <use xlink:href="#m4163def812" x="117.119949" y="291.636808" style="fill: #0000ff; stroke: #0000ff"/>
     <use xlink:href="#m4163def812" x="127.039986" y="295.488" style="fill: #0000ff; stroke: #0000ff"/>
     <use xlink:href="#m4163def812" x="136.960027" y="287.721802" style="fill: #0000ff; stroke: #0000ff"/>
     <use xlink:href="#m4163def812" x="146.880006" y="276.004222" style="fill: #0000ff; stroke: #0000ff"/>
     <use xlink:href="#m4163def812" x="156.80005" y="279.263376" style="fill: #0000ff; stroke: #0000ff"/>
     <use xlink:href="#m4163def812" x="166.720029" y="260.400836" style="fill: #0000ff; stroke: #0000ff"/>
     <use xlink:href="#m4163def812" x="176.639986" y="221.166223" style="fill: #0000ff; stroke: #0000ff"/>
     <use xlink:href="#m4163def812" x="186.560003" y="162.279479" style="fill: #0000ff; stroke: #0000ff"/>
     <use xlink:href="#m4163def812" x="196.47996" y="216.034183" style="fill: #0000ff; stroke: #0000ff"/>
     <use xlink:href="#m4163def812" x="206.399986" y="173.204186" style="fill: #0000ff; stroke: #0000ff"/>
     <use xlink:href="#m4163def812" x="216.320007" y="136.576994" style="fill: #0000ff; stroke: #0000ff"/>
     <use xlink:href="#m4163def812" x="226.240014" y="64.357443" style="fill: #0000ff; stroke: #0000ff"/>
     <use xlink:href="#m4163def812" x="236.159991" y="108.85711" style="fill: #0000ff; stroke: #0000ff"/>
     <use xlink:href="#m4163def812" x="246.079998" y="153.733312" style="fill: #0000ff; stroke: #0000ff"/>
     <use xlink:href="#m4163def812" x="256.000023" y="194.938988" style="fill: #0000ff; stroke: #0000ff"/>
     <use xlink:href="#m4163def812" x="265.919991" y="231.153851" style="fill: #0000ff; stroke: #0000ff"/>
     <use xlink:href="#m4163def812" x="275.840006" y="259.749601" style="fill: #0000ff; stroke: #0000ff"/>
     <use xlink:href="#m4163def812" x="285.759953" y="275.932433" style="fill: #0000ff; stroke: #0000ff"/>
     <use xlink:href="#m4163def812" x="295.680028" y="274.683472" style="fill: #0000ff; stroke: #0000ff"/>
     <use xlink:href="#m4163def812" x="305.599941" y="279.2647" style="fill: #0000ff; stroke: #0000ff"/>
     <use xlink:href="#m4163def812" x="315.519983" y="262.223134" style="fill: #0000ff; stroke: #0000ff"/>
     <use xlink:href="#m4163def812" x="325.439963" y="241.7949" style="fill: #0000ff; stroke: #0000ff"/>
     <use xlink:href="#m4163def812" x="335.360012" y="216.89384" style="fill: #0000ff; stroke: #0000ff"/>
     <use xlink:href="#m4163def812" x="345.279993" y="187.516353" style="fill: #0000ff; stroke: #0000ff"/>
     <use xlink:href="#m4163def812" x="355.200043" y="150.057986" style="fill: #0000ff; stroke: #0000ff"/>
     <use xlink:href="#m4163def812" x="365.119972" y="100.667352" style="fill: #0000ff; stroke: #0000ff"/>
     <use xlink:href="#m4163def812" x="375.040031" y="60.489859" style="fill: #0000ff; stroke: #0000ff"/>
     <use xlink:href="#m4163def812" x="384.959979" y="138.328471" style="fill: #0000ff; stroke: #0000ff"/>
     <use xlink:href="#m4163def812" x="394.880008" y="164.764403" style="fill: #0000ff; stroke: #0000ff"/>
     <use xlink:href="#m4163def812" x="404.799987" y="194.369417" style="fill: #0000ff; stroke: #0000ff"/>
     <use xlink:href="#m4163def812" x="414.720006" y="216.546054" style="fill: #0000ff; stroke: #0000ff"/>
    </g>
   </g>
   <g id="line2d_22">
    <path d="M 133.179245 295.488 
L 133.179245 53.568 
" clip-path="url(#p0e161ae923)" style="fill: none; stroke-dasharray: 7.4,3.2; stroke-dashoffset: 0; stroke: #000000; stroke-width: 2"/>
   </g>
   <g id="patch_3">
    <path d="M 57.6 307.584 
L 57.6 41.472 
" style="fill: none; stroke: #000000; stroke-width: 0.8; stroke-linejoin: miter; stroke-linecap: square"/>
   </g>
   <g id="patch_4">
    <path d="M 414.72 307.584 
L 414.72 41.472 
" style="fill: none; stroke: #000000; stroke-width: 0.8; stroke-linejoin: miter; stroke-linecap: square"/>
   </g>
   <g id="patch_5">
    <path d="M 57.6 307.584 
L 414.72 307.584 
" style="fill: none; stroke: #000000; stroke-width: 0.8; stroke-linejoin: miter; stroke-linecap: square"/>
   </g>
   <g id="patch_6">
    <path d="M 57.6 41.472 
L 414.72 41.472 
" style="fill: none; stroke: #000000; stroke-width: 0.8; stroke-linejoin: miter; stroke-linecap: square"/>
   </g>
   <g id="text_21">
    <!-- Dihedral angle: C6-C7-C20-C18 -->
    <g transform="translate(142.119375 35.472) scale(0.12 -0.12)">
     <defs>
      <path id="DejaVuSans-3a" d="M 750 794 
L 1409 794 
L 1409 0 
L 750 0 
L 750 794 
z
M 750 3309 
L 1409 3309 
L 1409 2516 
L 750 2516 
L 750 3309 
z
" transform="scale(0.015625)"/>
      <path id="DejaVuSans-43" d="M 4122 4306 
L 4122 3641 
Q 3803 3938 3442 4084 
Q 3081 4231 2675 4231 
Q 1875 4231 1450 3742 
Q 1025 3253 1025 2328 
Q 1025 1406 1450 917 
Q 1875 428 2675 428 
Q 3081 428 3442 575 
Q 3803 722 4122 1019 
L 4122 359 
Q 3791 134 3420 21 
Q 3050 -91 2638 -91 
Q 1578 -91 968 557 
Q 359 1206 359 2328 
Q 359 3453 968 4101 
Q 1578 4750 2638 4750 
Q 3056 4750 3426 4639 
Q 3797 4528 4122 4306 
z
" transform="scale(0.015625)"/>
      <path id="DejaVuSans-36" d="M 2113 2584 
Q 1688 2584 1439 2293 
Q 1191 2003 1191 1497 
Q 1191 994 1439 701 
Q 1688 409 2113 409 
Q 2538 409 2786 701 
Q 3034 994 3034 1497 
Q 3034 2003 2786 2293 
Q 2538 2584 2113 2584 
z
M 3366 4563 
L 3366 3988 
Q 3128 4100 2886 4159 
Q 2644 4219 2406 4219 
Q 1781 4219 1451 3797 
Q 1122 3375 1075 2522 
Q 1259 2794 1537 2939 
Q 1816 3084 2150 3084 
Q 2853 3084 3261 2657 
Q 3669 2231 3669 1497 
Q 3669 778 3244 343 
Q 2819 -91 2113 -91 
Q 1303 -91 875 529 
Q 447 1150 447 2328 
Q 447 3434 972 4092 
Q 1497 4750 2381 4750 
Q 2619 4750 2861 4703 
Q 3103 4656 3366 4563 
z
" transform="scale(0.015625)"/>
      <path id="DejaVuSans-2d" d="M 313 2009 
L 1997 2009 
L 1997 1497 
L 313 1497 
L 313 2009 
z
" transform="scale(0.015625)"/>
     </defs>
     <use xlink:href="#DejaVuSans-44"/>
     <use xlink:href="#DejaVuSans-69" x="77.001953"/>
     <use xlink:href="#DejaVuSans-68" x="104.785156"/>
     <use xlink:href="#DejaVuSans-65" x="168.164062"/>
     <use xlink:href="#DejaVuSans-64" x="229.6875"/>
     <use xlink:href="#DejaVuSans-72" x="293.164062"/>
     <use xlink:href="#DejaVuSans-61" x="334.277344"/>
     <use xlink:href="#DejaVuSans-6c" x="395.556641"/>
     <use xlink:href="#DejaVuSans-20" x="423.339844"/>
     <use xlink:href="#DejaVuSans-61" x="455.126953"/>
     <use xlink:href="#DejaVuSans-6e" x="516.40625"/>
     <use xlink:href="#DejaVuSans-67" x="579.785156"/>
     <use xlink:href="#DejaVuSans-6c" x="643.261719"/>
     <use xlink:href="#DejaVuSans-65" x="671.044922"/>
     <use xlink:href="#DejaVuSans-3a" x="732.568359"/>
     <use xlink:href="#DejaVuSans-20" x="766.259766"/>
     <use xlink:href="#DejaVuSans-43" x="798.046875"/>
     <use xlink:href="#DejaVuSans-36" x="867.871094"/>
     <use xlink:href="#DejaVuSans-2d" x="931.494141"/>
     <use xlink:href="#DejaVuSans-43" x="967.578125"/>
     <use xlink:href="#DejaVuSans-37" x="1037.402344"/>
     <use xlink:href="#DejaVuSans-2d" x="1101.025391"/>
     <use xlink:href="#DejaVuSans-43" x="1137.109375"/>
     <use xlink:href="#DejaVuSans-32" x="1206.933594"/>
     <use xlink:href="#DejaVuSans-30" x="1270.556641"/>
     <use xlink:href="#DejaVuSans-2d" x="1334.179688"/>
     <use xlink:href="#DejaVuSans-43" x="1370.263672"/>
     <use xlink:href="#DejaVuSans-31" x="1440.087891"/>
     <use xlink:href="#DejaVuSans-38" x="1503.710938"/>
    </g>
   </g>
   <g id="legend_1">
    <g id="patch_7">
     <path d="M 64.6 93.506375 
L 189.717187 93.506375 
Q 191.717187 93.506375 191.717187 91.506375 
L 191.717187 48.472 
Q 191.717187 46.472 189.717187 46.472 
L 64.6 46.472 
Q 62.6 46.472 62.6 48.472 
L 62.6 91.506375 
Q 62.6 93.506375 64.6 93.506375 
z
" style="fill: #ffffff; opacity: 0.8; stroke: #cccccc; stroke-linejoin: miter"/>
    </g>
    <g id="line2d_23">
     <path d="M 66.6 54.570438 
L 76.6 54.570438 
L 86.6 54.570438 
" style="fill: none; stroke: #ff0000; stroke-width: 3; stroke-linecap: square"/>
     <g>
      <use xlink:href="#mdab7a4d6b1" x="76.6" y="54.570438" style="fill: #ff0000; stroke: #ff0000"/>
     </g>
    </g>
    <g id="text_22">
     <!-- AIMNet2Calculator -->
     <g transform="translate(94.6 58.070438) scale(0.1 -0.1)">
      <defs>
       <path id="DejaVuSans-41" d="M 2188 4044 
L 1331 1722 
L 3047 1722 
L 2188 4044 
z
M 1831 4666 
L 2547 4666 
L 4325 0 
L 3669 0 
L 3244 1197 
L 1141 1197 
L 716 0 
L 50 0 
L 1831 4666 
z
" transform="scale(0.015625)"/>
       <path id="DejaVuSans-49" d="M 628 4666 
L 1259 4666 
L 1259 0 
L 628 0 
L 628 4666 
z
" transform="scale(0.015625)"/>
       <path id="DejaVuSans-4d" d="M 628 4666 
L 1569 4666 
L 2759 1491 
L 3956 4666 
L 4897 4666 
L 4897 0 
L 4281 0 
L 4281 4097 
L 3078 897 
L 2444 897 
L 1241 4097 
L 1241 0 
L 628 0 
L 628 4666 
z
" transform="scale(0.015625)"/>
       <path id="DejaVuSans-4e" d="M 628 4666 
L 1478 4666 
L 3547 763 
L 3547 4666 
L 4159 4666 
L 4159 0 
L 3309 0 
L 1241 3903 
L 1241 0 
L 628 0 
L 628 4666 
z
" transform="scale(0.015625)"/>
       <path id="DejaVuSans-74" d="M 1172 4494 
L 1172 3500 
L 2356 3500 
L 2356 3053 
L 1172 3053 
L 1172 1153 
Q 1172 725 1289 603 
Q 1406 481 1766 481 
L 2356 481 
L 2356 0 
L 1766 0 
Q 1100 0 847 248 
Q 594 497 594 1153 
L 594 3053 
L 172 3053 
L 172 3500 
L 594 3500 
L 594 4494 
L 1172 4494 
z
" transform="scale(0.015625)"/>
       <path id="DejaVuSans-75" d="M 544 1381 
L 544 3500 
L 1119 3500 
L 1119 1403 
Q 1119 906 1312 657 
Q 1506 409 1894 409 
Q 2359 409 2629 706 
Q 2900 1003 2900 1516 
L 2900 3500 
L 3475 3500 
L 3475 0 
L 2900 0 
L 2900 538 
Q 2691 219 2414 64 
Q 2138 -91 1772 -91 
Q 1169 -91 856 284 
Q 544 659 544 1381 
z
M 1991 3584 
L 1991 3584 
z
" transform="scale(0.015625)"/>
      </defs>
      <use xlink:href="#DejaVuSans-41"/>
      <use xlink:href="#DejaVuSans-49" x="68.408203"/>
      <use xlink:href="#DejaVuSans-4d" x="97.900391"/>
      <use xlink:href="#DejaVuSans-4e" x="184.179688"/>
      <use xlink:href="#DejaVuSans-65" x="258.984375"/>
      <use xlink:href="#DejaVuSans-74" x="320.507812"/>
      <use xlink:href="#DejaVuSans-32" x="359.716797"/>
      <use xlink:href="#DejaVuSans-43" x="423.339844"/>
      <use xlink:href="#DejaVuSans-61" x="493.164062"/>
      <use xlink:href="#DejaVuSans-6c" x="554.443359"/>
      <use xlink:href="#DejaVuSans-63" x="582.226562"/>
      <use xlink:href="#DejaVuSans-75" x="637.207031"/>
      <use xlink:href="#DejaVuSans-6c" x="700.585938"/>
      <use xlink:href="#DejaVuSans-61" x="728.369141"/>
      <use xlink:href="#DejaVuSans-74" x="789.648438"/>
      <use xlink:href="#DejaVuSans-6f" x="828.857422"/>
      <use xlink:href="#DejaVuSans-72" x="890.039062"/>
     </g>
    </g>
    <g id="line2d_24">
     <path d="M 66.6 69.248563 
L 76.6 69.248563 
L 86.6 69.248563 
" style="fill: none; stroke: #008000; stroke-width: 2; stroke-linecap: square"/>
     <g>
      <use xlink:href="#mb24912b8ca" x="76.6" y="69.248563" style="fill: #008000; stroke: #008000"/>
     </g>
    </g>
    <g id="text_23">
     <!-- MM initial (GAFF2) -->
     <g transform="translate(94.6 72.748563) scale(0.1 -0.1)">
      <defs>
       <path id="DejaVuSans-28" d="M 1984 4856 
Q 1566 4138 1362 3434 
Q 1159 2731 1159 2009 
Q 1159 1288 1364 580 
Q 1569 -128 1984 -844 
L 1484 -844 
Q 1016 -109 783 600 
Q 550 1309 550 2009 
Q 550 2706 781 3412 
Q 1013 4119 1484 4856 
L 1984 4856 
z
" transform="scale(0.015625)"/>
       <path id="DejaVuSans-47" d="M 3809 666 
L 3809 1919 
L 2778 1919 
L 2778 2438 
L 4434 2438 
L 4434 434 
Q 4069 175 3628 42 
Q 3188 -91 2688 -91 
Q 1594 -91 976 548 
Q 359 1188 359 2328 
Q 359 3472 976 4111 
Q 1594 4750 2688 4750 
Q 3144 4750 3555 4637 
Q 3966 4525 4313 4306 
L 4313 3634 
Q 3963 3931 3569 4081 
Q 3175 4231 2741 4231 
Q 1884 4231 1454 3753 
Q 1025 3275 1025 2328 
Q 1025 1384 1454 906 
Q 1884 428 2741 428 
Q 3075 428 3337 486 
Q 3600 544 3809 666 
z
" transform="scale(0.015625)"/>
       <path id="DejaVuSans-46" d="M 628 4666 
L 3309 4666 
L 3309 4134 
L 1259 4134 
L 1259 2759 
L 3109 2759 
L 3109 2228 
L 1259 2228 
L 1259 0 
L 628 0 
L 628 4666 
z
" transform="scale(0.015625)"/>
       <path id="DejaVuSans-29" d="M 513 4856 
L 1013 4856 
Q 1481 4119 1714 3412 
Q 1947 2706 1947 2009 
Q 1947 1309 1714 600 
Q 1481 -109 1013 -844 
L 513 -844 
Q 928 -128 1133 580 
Q 1338 1288 1338 2009 
Q 1338 2731 1133 3434 
Q 928 4138 513 4856 
z
" transform="scale(0.015625)"/>
      </defs>
      <use xlink:href="#DejaVuSans-4d"/>
      <use xlink:href="#DejaVuSans-4d" x="86.279297"/>
      <use xlink:href="#DejaVuSans-20" x="172.558594"/>
      <use xlink:href="#DejaVuSans-69" x="204.345703"/>
      <use xlink:href="#DejaVuSans-6e" x="232.128906"/>
      <use xlink:href="#DejaVuSans-69" x="295.507812"/>
      <use xlink:href="#DejaVuSans-74" x="323.291016"/>
      <use xlink:href="#DejaVuSans-69" x="362.5"/>
      <use xlink:href="#DejaVuSans-61" x="390.283203"/>
      <use xlink:href="#DejaVuSans-6c" x="451.5625"/>
      <use xlink:href="#DejaVuSans-20" x="479.345703"/>
      <use xlink:href="#DejaVuSans-28" x="511.132812"/>
      <use xlink:href="#DejaVuSans-47" x="550.146484"/>
      <use xlink:href="#DejaVuSans-41" x="627.636719"/>
      <use xlink:href="#DejaVuSans-46" x="696.044922"/>
      <use xlink:href="#DejaVuSans-46" x="753.564453"/>
      <use xlink:href="#DejaVuSans-32" x="811.083984"/>
      <use xlink:href="#DejaVuSans-29" x="874.707031"/>
     </g>
    </g>
    <g id="line2d_25">
     <path d="M 66.6 83.926688 
L 76.6 83.926688 
L 86.6 83.926688 
" style="fill: none; stroke: #0000ff; stroke-width: 2; stroke-linecap: square"/>
     <g>
      <use xlink:href="#m4163def812" x="76.6" y="83.926688" style="fill: #0000ff; stroke: #0000ff"/>
     </g>
    </g>
    <g id="text_24">
     <!-- MM fitted -->
     <g transform="translate(94.6 87.426688) scale(0.1 -0.1)">
      <defs>
       <path id="DejaVuSans-66" d="M 2375 4863 
L 2375 4384 
L 1825 4384 
Q 1516 4384 1395 4259 
Q 1275 4134 1275 3809 
L 1275 3500 
L 2222 3500 
L 2222 3053 
L 1275 3053 
L 1275 0 
L 697 0 
L 697 3053 
L 147 3053 
L 147 3500 
L 697 3500 
L 697 3744 
Q 697 4328 969 4595 
Q 1241 4863 1831 4863 
L 2375 4863 
z
" transform="scale(0.015625)"/>
      </defs>
      <use xlink:href="#DejaVuSans-4d"/>
      <use xlink:href="#DejaVuSans-4d" x="86.279297"/>
      <use xlink:href="#DejaVuSans-20" x="172.558594"/>
      <use xlink:href="#DejaVuSans-66" x="204.345703"/>
      <use xlink:href="#DejaVuSans-69" x="239.550781"/>
      <use xlink:href="#DejaVuSans-74" x="267.333984"/>
      <use xlink:href="#DejaVuSans-74" x="306.542969"/>
      <use xlink:href="#DejaVuSans-65" x="345.751953"/>
      <use xlink:href="#DejaVuSans-64" x="407.275391"/>
     </g>
    </g>
   </g>
  </g>
 </g>
 <defs>
  <clipPath id="p0e161ae923">
   <rect x="57.6" y="41.472" width="357.12" height="266.112"/>
  </clipPath>
 </defs>
</svg>
