<?xml version="1.0" encoding="utf-8" standalone="no"?>
<!DOCTYPE svg PUBLIC "-//W3C//DTD SVG 1.1//EN"
  "http://www.w3.org/Graphics/SVG/1.1/DTD/svg11.dtd">
<svg xmlns:xlink="http://www.w3.org/1999/xlink" width="460.8pt" height="345.6pt" viewBox="0 0 460.8 345.6" xmlns="http://www.w3.org/2000/svg" version="1.1">
 <metadata>
  <rdf:RDF xmlns:dc="http://purl.org/dc/elements/1.1/" xmlns:cc="http://creativecommons.org/ns#" xmlns:rdf="http://www.w3.org/1999/02/22-rdf-syntax-ns#">
   <cc:Work>
    <dc:type rdf:resource="http://purl.org/dc/dcmitype/StillImage"/>
    <dc:date>2024-02-06T19:58:11.897184</dc:date>
    <dc:format>image/svg+xml</dc:format>
    <dc:creator>
     <cc:Agent>
      <dc:title>Matplotlib v3.8.0, https://matplotlib.org/</dc:title>
     </cc:Agent>
    </dc:creator>
   </cc:Work>
  </rdf:RDF>
 </metadata>
 <defs>
  <style type="text/css">*{stroke-linejoin: round; stroke-linecap: butt}</style>
 </defs>
 <g id="figure_1">
  <g id="patch_1">
   <path d="M 0 345.6 
L 460.8 345.6 
L 460.8 0 
L 0 0 
z
" style="fill: #ffffff"/>
  </g>
  <g id="axes_1">
   <g id="patch_2">
    <path d="M 57.6 307.584 
L 414.72 307.584 
L 414.72 41.472 
L 57.6 41.472 
z
" style="fill: #ffffff"/>
   </g>
   <g id="matplotlib.axis_1">
    <g id="xtick_1">
     <g id="line2d_1">
      <defs>
       <path id="m1bae385eb6" d="M 0 0 
L 0 3.5 
" style="stroke: #000000; stroke-width: 0.8"/>
      </defs>
      <g>
       <use xlink:href="#m1bae385eb6" x="57.6" y="307.584" style="stroke: #000000; stroke-width: 0.8"/>
      </g>
     </g>
     <g id="text_1">
      <!-- −180 -->
      <g transform="translate(43.866406 322.182437) scale(0.1 -0.1)">
       <defs>
        <path id="DejaVuSans-2212" d="M 678 2272 
L 4684 2272 
L 4684 1741 
L 678 1741 
L 678 2272 
z
" transform="scale(0.015625)"/>
        <path id="DejaVuSans-31" d="M 794 531 
L 1825 531 
L 1825 4091 
L 703 3866 
L 703 4441 
L 1819 4666 
L 2450 4666 
L 2450 531 
L 3481 531 
L 3481 0 
L 794 0 
L 794 531 
z
" transform="scale(0.015625)"/>
        <path id="DejaVuSans-38" d="M 2034 2216 
Q 1584 2216 1326 1975 
Q 1069 1734 1069 1313 
Q 1069 891 1326 650 
Q 1584 409 2034 409 
Q 2484 409 2743 651 
Q 3003 894 3003 1313 
Q 3003 1734 2745 1975 
Q 2488 2216 2034 2216 
z
M 1403 2484 
Q 997 2584 770 2862 
Q 544 3141 544 3541 
Q 544 4100 942 4425 
Q 1341 4750 2034 4750 
Q 2731 4750 3128 4425 
Q 3525 4100 3525 3541 
Q 3525 3141 3298 2862 
Q 3072 2584 2669 2484 
Q 3125 2378 3379 2068 
Q 3634 1759 3634 1313 
Q 3634 634 3220 271 
Q 2806 -91 2034 -91 
Q 1263 -91 848 271 
Q 434 634 434 1313 
Q 434 1759 690 2068 
Q 947 2378 1403 2484 
z
M 1172 3481 
Q 1172 3119 1398 2916 
Q 1625 2713 2034 2713 
Q 2441 2713 2670 2916 
Q 2900 3119 2900 3481 
Q 2900 3844 2670 4047 
Q 2441 4250 2034 4250 
Q 1625 4250 1398 4047 
Q 1172 3844 1172 3481 
z
" transform="scale(0.015625)"/>
        <path id="DejaVuSans-30" d="M 2034 4250 
Q 1547 4250 1301 3770 
Q 1056 3291 1056 2328 
Q 1056 1369 1301 889 
Q 1547 409 2034 409 
Q 2525 409 2770 889 
Q 3016 1369 3016 2328 
Q 3016 3291 2770 3770 
Q 2525 4250 2034 4250 
z
M 2034 4750 
Q 2819 4750 3233 4129 
Q 3647 3509 3647 2328 
Q 3647 1150 3233 529 
Q 2819 -91 2034 -91 
Q 1250 -91 836 529 
Q 422 1150 422 2328 
Q 422 3509 836 4129 
Q 1250 4750 2034 4750 
z
" transform="scale(0.015625)"/>
       </defs>
       <use xlink:href="#DejaVuSans-2212"/>
       <use xlink:href="#DejaVuSans-31" x="83.789062"/>
       <use xlink:href="#DejaVuSans-38" x="147.412109"/>
       <use xlink:href="#DejaVuSans-30" x="211.035156"/>
      </g>
     </g>
    </g>
    <g id="xtick_2">
     <g id="line2d_2">
      <g>
       <use xlink:href="#m1bae385eb6" x="102.24" y="307.584" style="stroke: #000000; stroke-width: 0.8"/>
      </g>
     </g>
     <g id="text_2">
      <!-- −135 -->
      <g transform="translate(88.506406 322.182437) scale(0.1 -0.1)">
       <defs>
        <path id="DejaVuSans-33" d="M 2597 2516 
Q 3050 2419 3304 2112 
Q 3559 1806 3559 1356 
Q 3559 666 3084 287 
Q 2609 -91 1734 -91 
Q 1441 -91 1130 -33 
Q 819 25 488 141 
L 488 750 
Q 750 597 1062 519 
Q 1375 441 1716 441 
Q 2309 441 2620 675 
Q 2931 909 2931 1356 
Q 2931 1769 2642 2001 
Q 2353 2234 1838 2234 
L 1294 2234 
L 1294 2753 
L 1863 2753 
Q 2328 2753 2575 2939 
Q 2822 3125 2822 3475 
Q 2822 3834 2567 4026 
Q 2313 4219 1838 4219 
Q 1578 4219 1281 4162 
Q 984 4106 628 3988 
L 628 4550 
Q 988 4650 1302 4700 
Q 1616 4750 1894 4750 
Q 2613 4750 3031 4423 
Q 3450 4097 3450 3541 
Q 3450 3153 3228 2886 
Q 3006 2619 2597 2516 
z
" transform="scale(0.015625)"/>
        <path id="DejaVuSans-35" d="M 691 4666 
L 3169 4666 
L 3169 4134 
L 1269 4134 
L 1269 2991 
Q 1406 3038 1543 3061 
Q 1681 3084 1819 3084 
Q 2600 3084 3056 2656 
Q 3513 2228 3513 1497 
Q 3513 744 3044 326 
Q 2575 -91 1722 -91 
Q 1428 -91 1123 -41 
Q 819 9 494 109 
L 494 744 
Q 775 591 1075 516 
Q 1375 441 1709 441 
Q 2250 441 2565 725 
Q 2881 1009 2881 1497 
Q 2881 1984 2565 2268 
Q 2250 2553 1709 2553 
Q 1456 2553 1204 2497 
Q 953 2441 691 2322 
L 691 4666 
z
" transform="scale(0.015625)"/>
       </defs>
       <use xlink:href="#DejaVuSans-2212"/>
       <use xlink:href="#DejaVuSans-31" x="83.789062"/>
       <use xlink:href="#DejaVuSans-33" x="147.412109"/>
       <use xlink:href="#DejaVuSans-35" x="211.035156"/>
      </g>
     </g>
    </g>
    <g id="xtick_3">
     <g id="line2d_3">
      <g>
       <use xlink:href="#m1bae385eb6" x="146.88" y="307.584" style="stroke: #000000; stroke-width: 0.8"/>
      </g>
     </g>
     <g id="text_3">
      <!-- −90 -->
      <g transform="translate(136.327656 322.182437) scale(0.1 -0.1)">
       <defs>
        <path id="DejaVuSans-39" d="M 703 97 
L 703 672 
Q 941 559 1184 500 
Q 1428 441 1663 441 
Q 2288 441 2617 861 
Q 2947 1281 2994 2138 
Q 2813 1869 2534 1725 
Q 2256 1581 1919 1581 
Q 1219 1581 811 2004 
Q 403 2428 403 3163 
Q 403 3881 828 4315 
Q 1253 4750 1959 4750 
Q 2769 4750 3195 4129 
Q 3622 3509 3622 2328 
Q 3622 1225 3098 567 
Q 2575 -91 1691 -91 
Q 1453 -91 1209 -44 
Q 966 3 703 97 
z
M 1959 2075 
Q 2384 2075 2632 2365 
Q 2881 2656 2881 3163 
Q 2881 3666 2632 3958 
Q 2384 4250 1959 4250 
Q 1534 4250 1286 3958 
Q 1038 3666 1038 3163 
Q 1038 2656 1286 2365 
Q 1534 2075 1959 2075 
z
" transform="scale(0.015625)"/>
       </defs>
       <use xlink:href="#DejaVuSans-2212"/>
       <use xlink:href="#DejaVuSans-39" x="83.789062"/>
       <use xlink:href="#DejaVuSans-30" x="147.412109"/>
      </g>
     </g>
    </g>
    <g id="xtick_4">
     <g id="line2d_4">
      <g>
       <use xlink:href="#m1bae385eb6" x="191.52" y="307.584" style="stroke: #000000; stroke-width: 0.8"/>
      </g>
     </g>
     <g id="text_4">
      <!-- −45 -->
      <g transform="translate(180.967656 322.182437) scale(0.1 -0.1)">
       <defs>
        <path id="DejaVuSans-34" d="M 2419 4116 
L 825 1625 
L 2419 1625 
L 2419 4116 
z
M 2253 4666 
L 3047 4666 
L 3047 1625 
L 3713 1625 
L 3713 1100 
L 3047 1100 
L 3047 0 
L 2419 0 
L 2419 1100 
L 313 1100 
L 313 1709 
L 2253 4666 
z
" transform="scale(0.015625)"/>
       </defs>
       <use xlink:href="#DejaVuSans-2212"/>
       <use xlink:href="#DejaVuSans-34" x="83.789062"/>
       <use xlink:href="#DejaVuSans-35" x="147.412109"/>
      </g>
     </g>
    </g>
    <g id="xtick_5">
     <g id="line2d_5">
      <g>
       <use xlink:href="#m1bae385eb6" x="236.16" y="307.584" style="stroke: #000000; stroke-width: 0.8"/>
      </g>
     </g>
     <g id="text_5">
      <!-- 0 -->
      <g transform="translate(232.97875 322.182437) scale(0.1 -0.1)">
       <use xlink:href="#DejaVuSans-30"/>
      </g>
     </g>
    </g>
    <g id="xtick_6">
     <g id="line2d_6">
      <g>
       <use xlink:href="#m1bae385eb6" x="280.8" y="307.584" style="stroke: #000000; stroke-width: 0.8"/>
      </g>
     </g>
     <g id="text_6">
      <!-- 45 -->
      <g transform="translate(274.4375 322.182437) scale(0.1 -0.1)">
       <use xlink:href="#DejaVuSans-34"/>
       <use xlink:href="#DejaVuSans-35" x="63.623047"/>
      </g>
     </g>
    </g>
    <g id="xtick_7">
     <g id="line2d_7">
      <g>
       <use xlink:href="#m1bae385eb6" x="325.44" y="307.584" style="stroke: #000000; stroke-width: 0.8"/>
      </g>
     </g>
     <g id="text_7">
      <!-- 90 -->
      <g transform="translate(319.0775 322.182437) scale(0.1 -0.1)">
       <use xlink:href="#DejaVuSans-39"/>
       <use xlink:href="#DejaVuSans-30" x="63.623047"/>
      </g>
     </g>
    </g>
    <g id="xtick_8">
     <g id="line2d_8">
      <g>
       <use xlink:href="#m1bae385eb6" x="370.08" y="307.584" style="stroke: #000000; stroke-width: 0.8"/>
      </g>
     </g>
     <g id="text_8">
      <!-- 135 -->
      <g transform="translate(360.53625 322.182437) scale(0.1 -0.1)">
       <use xlink:href="#DejaVuSans-31"/>
       <use xlink:href="#DejaVuSans-33" x="63.623047"/>
       <use xlink:href="#DejaVuSans-35" x="127.246094"/>
      </g>
     </g>
    </g>
    <g id="xtick_9">
     <g id="line2d_9">
      <g>
       <use xlink:href="#m1bae385eb6" x="414.72" y="307.584" style="stroke: #000000; stroke-width: 0.8"/>
      </g>
     </g>
     <g id="text_9">
      <!-- 180 -->
      <g transform="translate(405.17625 322.182437) scale(0.1 -0.1)">
       <use xlink:href="#DejaVuSans-31"/>
       <use xlink:href="#DejaVuSans-38" x="63.623047"/>
       <use xlink:href="#DejaVuSans-30" x="127.246094"/>
      </g>
     </g>
    </g>
    <g id="text_10">
     <!-- Dihedral angle [deg] -->
     <g transform="translate(184.615469 335.860562) scale(0.1 -0.1)">
      <defs>
       <path id="DejaVuSans-44" d="M 1259 4147 
L 1259 519 
L 2022 519 
Q 2988 519 3436 956 
Q 3884 1394 3884 2338 
Q 3884 3275 3436 3711 
Q 2988 4147 2022 4147 
L 1259 4147 
z
M 628 4666 
L 1925 4666 
Q 3281 4666 3915 4102 
Q 4550 3538 4550 2338 
Q 4550 1131 3912 565 
Q 3275 0 1925 0 
L 628 0 
L 628 4666 
z
" transform="scale(0.015625)"/>
       <path id="DejaVuSans-69" d="M 603 3500 
L 1178 3500 
L 1178 0 
L 603 0 
L 603 3500 
z
M 603 4863 
L 1178 4863 
L 1178 4134 
L 603 4134 
L 603 4863 
z
" transform="scale(0.015625)"/>
       <path id="DejaVuSans-68" d="M 3513 2113 
L 3513 0 
L 2938 0 
L 2938 2094 
Q 2938 2591 2744 2837 
Q 2550 3084 2163 3084 
Q 1697 3084 1428 2787 
Q 1159 2491 1159 1978 
L 1159 0 
L 581 0 
L 581 4863 
L 1159 4863 
L 1159 2956 
Q 1366 3272 1645 3428 
Q 1925 3584 2291 3584 
Q 2894 3584 3203 3211 
Q 3513 2838 3513 2113 
z
" transform="scale(0.015625)"/>
       <path id="DejaVuSans-65" d="M 3597 1894 
L 3597 1613 
L 953 1613 
Q 991 1019 1311 708 
Q 1631 397 2203 397 
Q 2534 397 2845 478 
Q 3156 559 3463 722 
L 3463 178 
Q 3153 47 2828 -22 
Q 2503 -91 2169 -91 
Q 1331 -91 842 396 
Q 353 884 353 1716 
Q 353 2575 817 3079 
Q 1281 3584 2069 3584 
Q 2775 3584 3186 3129 
Q 3597 2675 3597 1894 
z
M 3022 2063 
Q 3016 2534 2758 2815 
Q 2500 3097 2075 3097 
Q 1594 3097 1305 2825 
Q 1016 2553 972 2059 
L 3022 2063 
z
" transform="scale(0.015625)"/>
       <path id="DejaVuSans-64" d="M 2906 2969 
L 2906 4863 
L 3481 4863 
L 3481 0 
L 2906 0 
L 2906 525 
Q 2725 213 2448 61 
Q 2172 -91 1784 -91 
Q 1150 -91 751 415 
Q 353 922 353 1747 
Q 353 2572 751 3078 
Q 1150 3584 1784 3584 
Q 2172 3584 2448 3432 
Q 2725 3281 2906 2969 
z
M 947 1747 
Q 947 1113 1208 752 
Q 1469 391 1925 391 
Q 2381 391 2643 752 
Q 2906 1113 2906 1747 
Q 2906 2381 2643 2742 
Q 2381 3103 1925 3103 
Q 1469 3103 1208 2742 
Q 947 2381 947 1747 
z
" transform="scale(0.015625)"/>
       <path id="DejaVuSans-72" d="M 2631 2963 
Q 2534 3019 2420 3045 
Q 2306 3072 2169 3072 
Q 1681 3072 1420 2755 
Q 1159 2438 1159 1844 
L 1159 0 
L 581 0 
L 581 3500 
L 1159 3500 
L 1159 2956 
Q 1341 3275 1631 3429 
Q 1922 3584 2338 3584 
Q 2397 3584 2469 3576 
Q 2541 3569 2628 3553 
L 2631 2963 
z
" transform="scale(0.015625)"/>
       <path id="DejaVuSans-61" d="M 2194 1759 
Q 1497 1759 1228 1600 
Q 959 1441 959 1056 
Q 959 750 1161 570 
Q 1363 391 1709 391 
Q 2188 391 2477 730 
Q 2766 1069 2766 1631 
L 2766 1759 
L 2194 1759 
z
M 3341 1997 
L 3341 0 
L 2766 0 
L 2766 531 
Q 2569 213 2275 61 
Q 1981 -91 1556 -91 
Q 1019 -91 701 211 
Q 384 513 384 1019 
Q 384 1609 779 1909 
Q 1175 2209 1959 2209 
L 2766 2209 
L 2766 2266 
Q 2766 2663 2505 2880 
Q 2244 3097 1772 3097 
Q 1472 3097 1187 3025 
Q 903 2953 641 2809 
L 641 3341 
Q 956 3463 1253 3523 
Q 1550 3584 1831 3584 
Q 2591 3584 2966 3190 
Q 3341 2797 3341 1997 
z
" transform="scale(0.015625)"/>
       <path id="DejaVuSans-6c" d="M 603 4863 
L 1178 4863 
L 1178 0 
L 603 0 
L 603 4863 
z
" transform="scale(0.015625)"/>
       <path id="DejaVuSans-20" transform="scale(0.015625)"/>
       <path id="DejaVuSans-6e" d="M 3513 2113 
L 3513 0 
L 2938 0 
L 2938 2094 
Q 2938 2591 2744 2837 
Q 2550 3084 2163 3084 
Q 1697 3084 1428 2787 
Q 1159 2491 1159 1978 
L 1159 0 
L 581 0 
L 581 3500 
L 1159 3500 
L 1159 2956 
Q 1366 3272 1645 3428 
Q 1925 3584 2291 3584 
Q 2894 3584 3203 3211 
Q 3513 2838 3513 2113 
z
" transform="scale(0.015625)"/>
       <path id="DejaVuSans-67" d="M 2906 1791 
Q 2906 2416 2648 2759 
Q 2391 3103 1925 3103 
Q 1463 3103 1205 2759 
Q 947 2416 947 1791 
Q 947 1169 1205 825 
Q 1463 481 1925 481 
Q 2391 481 2648 825 
Q 2906 1169 2906 1791 
z
M 3481 434 
Q 3481 -459 3084 -895 
Q 2688 -1331 1869 -1331 
Q 1566 -1331 1297 -1286 
Q 1028 -1241 775 -1147 
L 775 -588 
Q 1028 -725 1275 -790 
Q 1522 -856 1778 -856 
Q 2344 -856 2625 -561 
Q 2906 -266 2906 331 
L 2906 616 
Q 2728 306 2450 153 
Q 2172 0 1784 0 
Q 1141 0 747 490 
Q 353 981 353 1791 
Q 353 2603 747 3093 
Q 1141 3584 1784 3584 
Q 2172 3584 2450 3431 
Q 2728 3278 2906 2969 
L 2906 3500 
L 3481 3500 
L 3481 434 
z
" transform="scale(0.015625)"/>
       <path id="DejaVuSans-5b" d="M 550 4863 
L 1875 4863 
L 1875 4416 
L 1125 4416 
L 1125 -397 
L 1875 -397 
L 1875 -844 
L 550 -844 
L 550 4863 
z
" transform="scale(0.015625)"/>
       <path id="DejaVuSans-5d" d="M 1947 4863 
L 1947 -844 
L 622 -844 
L 622 -397 
L 1369 -397 
L 1369 4416 
L 622 4416 
L 622 4863 
L 1947 4863 
z
" transform="scale(0.015625)"/>
      </defs>
      <use xlink:href="#DejaVuSans-44"/>
      <use xlink:href="#DejaVuSans-69" x="77.001953"/>
      <use xlink:href="#DejaVuSans-68" x="104.785156"/>
      <use xlink:href="#DejaVuSans-65" x="168.164062"/>
      <use xlink:href="#DejaVuSans-64" x="229.6875"/>
      <use xlink:href="#DejaVuSans-72" x="293.164062"/>
      <use xlink:href="#DejaVuSans-61" x="334.277344"/>
      <use xlink:href="#DejaVuSans-6c" x="395.556641"/>
      <use xlink:href="#DejaVuSans-20" x="423.339844"/>
      <use xlink:href="#DejaVuSans-61" x="455.126953"/>
      <use xlink:href="#DejaVuSans-6e" x="516.40625"/>
      <use xlink:href="#DejaVuSans-67" x="579.785156"/>
      <use xlink:href="#DejaVuSans-6c" x="643.261719"/>
      <use xlink:href="#DejaVuSans-65" x="671.044922"/>
      <use xlink:href="#DejaVuSans-20" x="732.568359"/>
      <use xlink:href="#DejaVuSans-5b" x="764.355469"/>
      <use xlink:href="#DejaVuSans-64" x="803.369141"/>
      <use xlink:href="#DejaVuSans-65" x="866.845703"/>
      <use xlink:href="#DejaVuSans-67" x="928.369141"/>
      <use xlink:href="#DejaVuSans-5d" x="991.845703"/>
     </g>
    </g>
   </g>
   <g id="matplotlib.axis_2">
    <g id="ytick_1">
     <g id="line2d_10">
      <defs>
       <path id="m9f145218b3" d="M 0 0 
L -3.5 0 
" style="stroke: #000000; stroke-width: 0.8"/>
      </defs>
      <g>
       <use xlink:href="#m9f145218b3" x="57.6" y="295.488" style="stroke: #000000; stroke-width: 0.8"/>
      </g>
     </g>
     <g id="text_11">
      <!-- 0 -->
      <g transform="translate(44.2375 299.287219) scale(0.1 -0.1)">
       <use xlink:href="#DejaVuSans-30"/>
      </g>
     </g>
    </g>
    <g id="ytick_2">
     <g id="line2d_11">
      <g>
       <use xlink:href="#m9f145218b3" x="57.6" y="264.314319" style="stroke: #000000; stroke-width: 0.8"/>
      </g>
     </g>
     <g id="text_12">
      <!-- 1 -->
      <g transform="translate(44.2375 268.113538) scale(0.1 -0.1)">
       <use xlink:href="#DejaVuSans-31"/>
      </g>
     </g>
    </g>
    <g id="ytick_3">
     <g id="line2d_12">
      <g>
       <use xlink:href="#m9f145218b3" x="57.6" y="233.140639" style="stroke: #000000; stroke-width: 0.8"/>
      </g>
     </g>
     <g id="text_13">
      <!-- 2 -->
      <g transform="translate(44.2375 236.939857) scale(0.1 -0.1)">
       <defs>
        <path id="DejaVuSans-32" d="M 1228 531 
L 3431 531 
L 3431 0 
L 469 0 
L 469 531 
Q 828 903 1448 1529 
Q 2069 2156 2228 2338 
Q 2531 2678 2651 2914 
Q 2772 3150 2772 3378 
Q 2772 3750 2511 3984 
Q 2250 4219 1831 4219 
Q 1534 4219 1204 4116 
Q 875 4013 500 3803 
L 500 4441 
Q 881 4594 1212 4672 
Q 1544 4750 1819 4750 
Q 2544 4750 2975 4387 
Q 3406 4025 3406 3419 
Q 3406 3131 3298 2873 
Q 3191 2616 2906 2266 
Q 2828 2175 2409 1742 
Q 1991 1309 1228 531 
z
" transform="scale(0.015625)"/>
       </defs>
       <use xlink:href="#DejaVuSans-32"/>
      </g>
     </g>
    </g>
    <g id="ytick_4">
     <g id="line2d_13">
      <g>
       <use xlink:href="#m9f145218b3" x="57.6" y="201.966958" style="stroke: #000000; stroke-width: 0.8"/>
      </g>
     </g>
     <g id="text_14">
      <!-- 3 -->
      <g transform="translate(44.2375 205.766177) scale(0.1 -0.1)">
       <use xlink:href="#DejaVuSans-33"/>
      </g>
     </g>
    </g>
    <g id="ytick_5">
     <g id="line2d_14">
      <g>
       <use xlink:href="#m9f145218b3" x="57.6" y="170.793277" style="stroke: #000000; stroke-width: 0.8"/>
      </g>
     </g>
     <g id="text_15">
      <!-- 4 -->
      <g transform="translate(44.2375 174.592496) scale(0.1 -0.1)">
       <use xlink:href="#DejaVuSans-34"/>
      </g>
     </g>
    </g>
    <g id="ytick_6">
     <g id="line2d_15">
      <g>
       <use xlink:href="#m9f145218b3" x="57.6" y="139.619597" style="stroke: #000000; stroke-width: 0.8"/>
      </g>
     </g>
     <g id="text_16">
      <!-- 5 -->
      <g transform="translate(44.2375 143.418815) scale(0.1 -0.1)">
       <use xlink:href="#DejaVuSans-35"/>
      </g>
     </g>
    </g>
    <g id="ytick_7">
     <g id="line2d_16">
      <g>
       <use xlink:href="#m9f145218b3" x="57.6" y="108.445916" style="stroke: #000000; stroke-width: 0.8"/>
      </g>
     </g>
     <g id="text_17">
      <!-- 6 -->
      <g transform="translate(44.2375 112.245135) scale(0.1 -0.1)">
       <defs>
        <path id="DejaVuSans-36" d="M 2113 2584 
Q 1688 2584 1439 2293 
Q 1191 2003 1191 1497 
Q 1191 994 1439 701 
Q 1688 409 2113 409 
Q 2538 409 2786 701 
Q 3034 994 3034 1497 
Q 3034 2003 2786 2293 
Q 2538 2584 2113 2584 
z
M 3366 4563 
L 3366 3988 
Q 3128 4100 2886 4159 
Q 2644 4219 2406 4219 
Q 1781 4219 1451 3797 
Q 1122 3375 1075 2522 
Q 1259 2794 1537 2939 
Q 1816 3084 2150 3084 
Q 2853 3084 3261 2657 
Q 3669 2231 3669 1497 
Q 3669 778 3244 343 
Q 2819 -91 2113 -91 
Q 1303 -91 875 529 
Q 447 1150 447 2328 
Q 447 3434 972 4092 
Q 1497 4750 2381 4750 
Q 2619 4750 2861 4703 
Q 3103 4656 3366 4563 
z
" transform="scale(0.015625)"/>
       </defs>
       <use xlink:href="#DejaVuSans-36"/>
      </g>
     </g>
    </g>
    <g id="ytick_8">
     <g id="line2d_17">
      <g>
       <use xlink:href="#m9f145218b3" x="57.6" y="77.272235" style="stroke: #000000; stroke-width: 0.8"/>
      </g>
     </g>
     <g id="text_18">
      <!-- 7 -->
      <g transform="translate(44.2375 81.071454) scale(0.1 -0.1)">
       <defs>
        <path id="DejaVuSans-37" d="M 525 4666 
L 3525 4666 
L 3525 4397 
L 1831 0 
L 1172 0 
L 2766 4134 
L 525 4134 
L 525 4666 
z
" transform="scale(0.015625)"/>
       </defs>
       <use xlink:href="#DejaVuSans-37"/>
      </g>
     </g>
    </g>
    <g id="ytick_9">
     <g id="line2d_18">
      <g>
       <use xlink:href="#m9f145218b3" x="57.6" y="46.098555" style="stroke: #000000; stroke-width: 0.8"/>
      </g>
     </g>
     <g id="text_19">
      <!-- 8 -->
      <g transform="translate(44.2375 49.897773) scale(0.1 -0.1)">
       <use xlink:href="#DejaVuSans-38"/>
      </g>
     </g>
    </g>
    <g id="text_20">
     <!-- Energy [kcal/mol] -->
     <g transform="translate(38.157812 218.625656) rotate(-90) scale(0.1 -0.1)">
      <defs>
       <path id="DejaVuSans-45" d="M 628 4666 
L 3578 4666 
L 3578 4134 
L 1259 4134 
L 1259 2753 
L 3481 2753 
L 3481 2222 
L 1259 2222 
L 1259 531 
L 3634 531 
L 3634 0 
L 628 0 
L 628 4666 
z
" transform="scale(0.015625)"/>
       <path id="DejaVuSans-79" d="M 2059 -325 
Q 1816 -950 1584 -1140 
Q 1353 -1331 966 -1331 
L 506 -1331 
L 506 -850 
L 844 -850 
Q 1081 -850 1212 -737 
Q 1344 -625 1503 -206 
L 1606 56 
L 191 3500 
L 800 3500 
L 1894 763 
L 2988 3500 
L 3597 3500 
L 2059 -325 
z
" transform="scale(0.015625)"/>
       <path id="DejaVuSans-6b" d="M 581 4863 
L 1159 4863 
L 1159 1991 
L 2875 3500 
L 3609 3500 
L 1753 1863 
L 3688 0 
L 2938 0 
L 1159 1709 
L 1159 0 
L 581 0 
L 581 4863 
z
" transform="scale(0.015625)"/>
       <path id="DejaVuSans-63" d="M 3122 3366 
L 3122 2828 
Q 2878 2963 2633 3030 
Q 2388 3097 2138 3097 
Q 1578 3097 1268 2742 
Q 959 2388 959 1747 
Q 959 1106 1268 751 
Q 1578 397 2138 397 
Q 2388 397 2633 464 
Q 2878 531 3122 666 
L 3122 134 
Q 2881 22 2623 -34 
Q 2366 -91 2075 -91 
Q 1284 -91 818 406 
Q 353 903 353 1747 
Q 353 2603 823 3093 
Q 1294 3584 2113 3584 
Q 2378 3584 2631 3529 
Q 2884 3475 3122 3366 
z
" transform="scale(0.015625)"/>
       <path id="DejaVuSans-2f" d="M 1625 4666 
L 2156 4666 
L 531 -594 
L 0 -594 
L 1625 4666 
z
" transform="scale(0.015625)"/>
       <path id="DejaVuSans-6d" d="M 3328 2828 
Q 3544 3216 3844 3400 
Q 4144 3584 4550 3584 
Q 5097 3584 5394 3201 
Q 5691 2819 5691 2113 
L 5691 0 
L 5113 0 
L 5113 2094 
Q 5113 2597 4934 2840 
Q 4756 3084 4391 3084 
Q 3944 3084 3684 2787 
Q 3425 2491 3425 1978 
L 3425 0 
L 2847 0 
L 2847 2094 
Q 2847 2600 2669 2842 
Q 2491 3084 2119 3084 
Q 1678 3084 1418 2786 
Q 1159 2488 1159 1978 
L 1159 0 
L 581 0 
L 581 3500 
L 1159 3500 
L 1159 2956 
Q 1356 3278 1631 3431 
Q 1906 3584 2284 3584 
Q 2666 3584 2933 3390 
Q 3200 3197 3328 2828 
z
" transform="scale(0.015625)"/>
       <path id="DejaVuSans-6f" d="M 1959 3097 
Q 1497 3097 1228 2736 
Q 959 2375 959 1747 
Q 959 1119 1226 758 
Q 1494 397 1959 397 
Q 2419 397 2687 759 
Q 2956 1122 2956 1747 
Q 2956 2369 2687 2733 
Q 2419 3097 1959 3097 
z
M 1959 3584 
Q 2709 3584 3137 3096 
Q 3566 2609 3566 1747 
Q 3566 888 3137 398 
Q 2709 -91 1959 -91 
Q 1206 -91 779 398 
Q 353 888 353 1747 
Q 353 2609 779 3096 
Q 1206 3584 1959 3584 
z
" transform="scale(0.015625)"/>
      </defs>
      <use xlink:href="#DejaVuSans-45"/>
      <use xlink:href="#DejaVuSans-6e" x="63.183594"/>
      <use xlink:href="#DejaVuSans-65" x="126.5625"/>
      <use xlink:href="#DejaVuSans-72" x="188.085938"/>
      <use xlink:href="#DejaVuSans-67" x="227.449219"/>
      <use xlink:href="#DejaVuSans-79" x="290.925781"/>
      <use xlink:href="#DejaVuSans-20" x="350.105469"/>
      <use xlink:href="#DejaVuSans-5b" x="381.892578"/>
      <use xlink:href="#DejaVuSans-6b" x="420.90625"/>
      <use xlink:href="#DejaVuSans-63" x="478.816406"/>
      <use xlink:href="#DejaVuSans-61" x="533.796875"/>
      <use xlink:href="#DejaVuSans-6c" x="595.076172"/>
      <use xlink:href="#DejaVuSans-2f" x="622.859375"/>
      <use xlink:href="#DejaVuSans-6d" x="656.550781"/>
      <use xlink:href="#DejaVuSans-6f" x="753.962891"/>
      <use xlink:href="#DejaVuSans-6c" x="815.144531"/>
      <use xlink:href="#DejaVuSans-5d" x="842.927734"/>
     </g>
    </g>
   </g>
   <g id="line2d_19">
    <path d="M 47.679989 293.019486 
L 57.600061 292.456206 
L 67.520048 271.831536 
L 77.439988 248.374733 
L 87.359968 228.816036 
L 97.280032 211.934114 
L 107.200035 210.874846 
L 117.120005 203.057604 
L 127.039994 213.985493 
L 136.960001 234.93216 
L 146.879995 259.402416 
L 156.799984 270.895169 
L 166.720061 270.416898 
L 176.640036 255.792802 
L 186.560036 243.766834 
L 196.480063 228.436803 
L 206.399943 208.340974 
L 216.319956 193.242658 
L 226.240026 189.929645 
L 236.15995 205.608436 
L 246.079937 229.897635 
L 256.000025 258.858765 
L 265.919996 283.530732 
L 275.840054 295.488 
L 285.760054 293.032998 
L 295.680014 273.501439 
L 305.600007 254.292051 
L 315.520003 228.050746 
L 325.439994 182.706067 
L 335.359977 126.850584 
L 345.279978 80.347569 
L 355.200017 59.89044 
L 365.119997 94.899157 
L 375.040034 150.545834 
L 384.960036 221.14263 
L 394.880068 268.326988 
L 404.799989 293.019486 
L 414.720061 292.456206 
" clip-path="url(#p11c329bd2d)" style="fill: none; stroke: #ff0000; stroke-width: 3; stroke-linecap: square"/>
    <defs>
     <path id="m4e90f097a6" d="M 0 3 
C 0.795609 3 1.55874 2.683901 2.12132 2.12132 
C 2.683901 1.55874 3 0.795609 3 0 
C 3 -0.795609 2.683901 -1.55874 2.12132 -2.12132 
C 1.55874 -2.683901 0.795609 -3 0 -3 
C -0.795609 -3 -1.55874 -2.683901 -2.12132 -2.12132 
C -2.683901 -1.55874 -3 -0.795609 -3 0 
C -3 0.795609 -2.683901 1.55874 -2.12132 2.12132 
C -1.55874 2.683901 -0.795609 3 0 3 
z
" style="stroke: #ff0000"/>
    </defs>
    <g clip-path="url(#p11c329bd2d)">
     <use xlink:href="#m4e90f097a6" x="47.679989" y="293.019486" style="fill: #ff0000; stroke: #ff0000"/>
     <use xlink:href="#m4e90f097a6" x="57.600061" y="292.456206" style="fill: #ff0000; stroke: #ff0000"/>
     <use xlink:href="#m4e90f097a6" x="67.520048" y="271.831536" style="fill: #ff0000; stroke: #ff0000"/>
     <use xlink:href="#m4e90f097a6" x="77.439988" y="248.374733" style="fill: #ff0000; stroke: #ff0000"/>
     <use xlink:href="#m4e90f097a6" x="87.359968" y="228.816036" style="fill: #ff0000; stroke: #ff0000"/>
     <use xlink:href="#m4e90f097a6" x="97.280032" y="211.934114" style="fill: #ff0000; stroke: #ff0000"/>
     <use xlink:href="#m4e90f097a6" x="107.200035" y="210.874846" style="fill: #ff0000; stroke: #ff0000"/>
     <use xlink:href="#m4e90f097a6" x="117.120005" y="203.057604" style="fill: #ff0000; stroke: #ff0000"/>
     <use xlink:href="#m4e90f097a6" x="127.039994" y="213.985493" style="fill: #ff0000; stroke: #ff0000"/>
     <use xlink:href="#m4e90f097a6" x="136.960001" y="234.93216" style="fill: #ff0000; stroke: #ff0000"/>
     <use xlink:href="#m4e90f097a6" x="146.879995" y="259.402416" style="fill: #ff0000; stroke: #ff0000"/>
     <use xlink:href="#m4e90f097a6" x="156.799984" y="270.895169" style="fill: #ff0000; stroke: #ff0000"/>
     <use xlink:href="#m4e90f097a6" x="166.720061" y="270.416898" style="fill: #ff0000; stroke: #ff0000"/>
     <use xlink:href="#m4e90f097a6" x="176.640036" y="255.792802" style="fill: #ff0000; stroke: #ff0000"/>
     <use xlink:href="#m4e90f097a6" x="186.560036" y="243.766834" style="fill: #ff0000; stroke: #ff0000"/>
     <use xlink:href="#m4e90f097a6" x="196.480063" y="228.436803" style="fill: #ff0000; stroke: #ff0000"/>
     <use xlink:href="#m4e90f097a6" x="206.399943" y="208.340974" style="fill: #ff0000; stroke: #ff0000"/>
     <use xlink:href="#m4e90f097a6" x="216.319956" y="193.242658" style="fill: #ff0000; stroke: #ff0000"/>
     <use xlink:href="#m4e90f097a6" x="226.240026" y="189.929645" style="fill: #ff0000; stroke: #ff0000"/>
     <use xlink:href="#m4e90f097a6" x="236.15995" y="205.608436" style="fill: #ff0000; stroke: #ff0000"/>
     <use xlink:href="#m4e90f097a6" x="246.079937" y="229.897635" style="fill: #ff0000; stroke: #ff0000"/>
     <use xlink:href="#m4e90f097a6" x="256.000025" y="258.858765" style="fill: #ff0000; stroke: #ff0000"/>
     <use xlink:href="#m4e90f097a6" x="265.919996" y="283.530732" style="fill: #ff0000; stroke: #ff0000"/>
     <use xlink:href="#m4e90f097a6" x="275.840054" y="295.488" style="fill: #ff0000; stroke: #ff0000"/>
     <use xlink:href="#m4e90f097a6" x="285.760054" y="293.032998" style="fill: #ff0000; stroke: #ff0000"/>
     <use xlink:href="#m4e90f097a6" x="295.680014" y="273.501439" style="fill: #ff0000; stroke: #ff0000"/>
     <use xlink:href="#m4e90f097a6" x="305.600007" y="254.292051" style="fill: #ff0000; stroke: #ff0000"/>
     <use xlink:href="#m4e90f097a6" x="315.520003" y="228.050746" style="fill: #ff0000; stroke: #ff0000"/>
     <use xlink:href="#m4e90f097a6" x="325.439994" y="182.706067" style="fill: #ff0000; stroke: #ff0000"/>
     <use xlink:href="#m4e90f097a6" x="335.359977" y="126.850584" style="fill: #ff0000; stroke: #ff0000"/>
     <use xlink:href="#m4e90f097a6" x="345.279978" y="80.347569" style="fill: #ff0000; stroke: #ff0000"/>
     <use xlink:href="#m4e90f097a6" x="355.200017" y="59.89044" style="fill: #ff0000; stroke: #ff0000"/>
     <use xlink:href="#m4e90f097a6" x="365.119997" y="94.899157" style="fill: #ff0000; stroke: #ff0000"/>
     <use xlink:href="#m4e90f097a6" x="375.040034" y="150.545834" style="fill: #ff0000; stroke: #ff0000"/>
     <use xlink:href="#m4e90f097a6" x="384.960036" y="221.14263" style="fill: #ff0000; stroke: #ff0000"/>
     <use xlink:href="#m4e90f097a6" x="394.880068" y="268.326988" style="fill: #ff0000; stroke: #ff0000"/>
     <use xlink:href="#m4e90f097a6" x="404.799989" y="293.019486" style="fill: #ff0000; stroke: #ff0000"/>
     <use xlink:href="#m4e90f097a6" x="414.720061" y="292.456206" style="fill: #ff0000; stroke: #ff0000"/>
    </g>
   </g>
   <g id="line2d_20">
    <path d="M 47.679989 282.007806 
L 57.600061 263.444594 
L 67.520048 224.624845 
L 77.439988 175.284322 
L 87.359968 125.896556 
L 97.280032 88.418673 
L 107.200035 74.346834 
L 117.120005 90.084098 
L 127.039994 126.357209 
L 136.960001 172.871086 
L 146.879995 219.697895 
L 156.799984 256.392891 
L 166.720061 281.122846 
L 176.640036 294.162301 
L 186.560036 295.488 
L 196.480063 284.298938 
L 206.399943 264.306829 
L 216.319956 244.432069 
L 226.240026 230.594816 
L 236.15995 221.741843 
L 246.079937 221.744288 
L 256.000025 228.663838 
L 265.919996 234.967175 
L 275.840054 235.642209 
L 285.760054 226.192118 
L 295.680014 216.933215 
L 305.600007 198.958021 
L 315.520003 157.845029 
L 325.439994 103.673892 
L 335.359977 62.124146 
L 345.279978 53.568 
L 355.200017 82.58725 
L 365.119997 135.976893 
L 375.040034 192.922541 
L 384.960036 242.372817 
L 394.880068 274.465945 
L 404.799989 282.007806 
L 414.720061 263.444594 
" clip-path="url(#p11c329bd2d)" style="fill: none; stroke: #008000; stroke-width: 2; stroke-linecap: square"/>
    <defs>
     <path id="md11ec51aec" d="M 0 3 
C 0.795609 3 1.55874 2.683901 2.12132 2.12132 
C 2.683901 1.55874 3 0.795609 3 0 
C 3 -0.795609 2.683901 -1.55874 2.12132 -2.12132 
C 1.55874 -2.683901 0.795609 -3 0 -3 
C -0.795609 -3 -1.55874 -2.683901 -2.12132 -2.12132 
C -2.683901 -1.55874 -3 -0.795609 -3 0 
C -3 0.795609 -2.683901 1.55874 -2.12132 2.12132 
C -1.55874 2.683901 -0.795609 3 0 3 
z
" style="stroke: #008000"/>
    </defs>
    <g clip-path="url(#p11c329bd2d)">
     <use xlink:href="#md11ec51aec" x="47.679989" y="282.007806" style="fill: #008000; stroke: #008000"/>
     <use xlink:href="#md11ec51aec" x="57.600061" y="263.444594" style="fill: #008000; stroke: #008000"/>
     <use xlink:href="#md11ec51aec" x="67.520048" y="224.624845" style="fill: #008000; stroke: #008000"/>
     <use xlink:href="#md11ec51aec" x="77.439988" y="175.284322" style="fill: #008000; stroke: #008000"/>
     <use xlink:href="#md11ec51aec" x="87.359968" y="125.896556" style="fill: #008000; stroke: #008000"/>
     <use xlink:href="#md11ec51aec" x="97.280032" y="88.418673" style="fill: #008000; stroke: #008000"/>
     <use xlink:href="#md11ec51aec" x="107.200035" y="74.346834" style="fill: #008000; stroke: #008000"/>
     <use xlink:href="#md11ec51aec" x="117.120005" y="90.084098" style="fill: #008000; stroke: #008000"/>
     <use xlink:href="#md11ec51aec" x="127.039994" y="126.357209" style="fill: #008000; stroke: #008000"/>
     <use xlink:href="#md11ec51aec" x="136.960001" y="172.871086" style="fill: #008000; stroke: #008000"/>
     <use xlink:href="#md11ec51aec" x="146.879995" y="219.697895" style="fill: #008000; stroke: #008000"/>
     <use xlink:href="#md11ec51aec" x="156.799984" y="256.392891" style="fill: #008000; stroke: #008000"/>
     <use xlink:href="#md11ec51aec" x="166.720061" y="281.122846" style="fill: #008000; stroke: #008000"/>
     <use xlink:href="#md11ec51aec" x="176.640036" y="294.162301" style="fill: #008000; stroke: #008000"/>
     <use xlink:href="#md11ec51aec" x="186.560036" y="295.488" style="fill: #008000; stroke: #008000"/>
     <use xlink:href="#md11ec51aec" x="196.480063" y="284.298938" style="fill: #008000; stroke: #008000"/>
     <use xlink:href="#md11ec51aec" x="206.399943" y="264.306829" style="fill: #008000; stroke: #008000"/>
     <use xlink:href="#md11ec51aec" x="216.319956" y="244.432069" style="fill: #008000; stroke: #008000"/>
     <use xlink:href="#md11ec51aec" x="226.240026" y="230.594816" style="fill: #008000; stroke: #008000"/>
     <use xlink:href="#md11ec51aec" x="236.15995" y="221.741843" style="fill: #008000; stroke: #008000"/>
     <use xlink:href="#md11ec51aec" x="246.079937" y="221.744288" style="fill: #008000; stroke: #008000"/>
     <use xlink:href="#md11ec51aec" x="256.000025" y="228.663838" style="fill: #008000; stroke: #008000"/>
     <use xlink:href="#md11ec51aec" x="265.919996" y="234.967175" style="fill: #008000; stroke: #008000"/>
     <use xlink:href="#md11ec51aec" x="275.840054" y="235.642209" style="fill: #008000; stroke: #008000"/>
     <use xlink:href="#md11ec51aec" x="285.760054" y="226.192118" style="fill: #008000; stroke: #008000"/>
     <use xlink:href="#md11ec51aec" x="295.680014" y="216.933215" style="fill: #008000; stroke: #008000"/>
     <use xlink:href="#md11ec51aec" x="305.600007" y="198.958021" style="fill: #008000; stroke: #008000"/>
     <use xlink:href="#md11ec51aec" x="315.520003" y="157.845029" style="fill: #008000; stroke: #008000"/>
     <use xlink:href="#md11ec51aec" x="325.439994" y="103.673892" style="fill: #008000; stroke: #008000"/>
     <use xlink:href="#md11ec51aec" x="335.359977" y="62.124146" style="fill: #008000; stroke: #008000"/>
     <use xlink:href="#md11ec51aec" x="345.279978" y="53.568" style="fill: #008000; stroke: #008000"/>
     <use xlink:href="#md11ec51aec" x="355.200017" y="82.58725" style="fill: #008000; stroke: #008000"/>
     <use xlink:href="#md11ec51aec" x="365.119997" y="135.976893" style="fill: #008000; stroke: #008000"/>
     <use xlink:href="#md11ec51aec" x="375.040034" y="192.922541" style="fill: #008000; stroke: #008000"/>
     <use xlink:href="#md11ec51aec" x="384.960036" y="242.372817" style="fill: #008000; stroke: #008000"/>
     <use xlink:href="#md11ec51aec" x="394.880068" y="274.465945" style="fill: #008000; stroke: #008000"/>
     <use xlink:href="#md11ec51aec" x="404.799989" y="282.007806" style="fill: #008000; stroke: #008000"/>
     <use xlink:href="#md11ec51aec" x="414.720061" y="263.444594" style="fill: #008000; stroke: #008000"/>
    </g>
   </g>
   <g id="line2d_21">
    <path d="M 47.679989 291.794433 
L 57.600061 291.779964 
L 67.520048 272.472256 
L 77.439988 250.798085 
L 87.359968 232.851958 
L 97.280032 213.025167 
L 107.200035 204.05121 
L 117.120005 202.954953 
L 127.039994 212.255717 
L 136.960001 235.664972 
L 146.879995 257.110539 
L 156.799984 270.590838 
L 166.720061 271.613598 
L 176.640036 262.323714 
L 186.560036 244.685986 
L 196.480063 220.747857 
L 206.399943 203.755573 
L 216.319956 192.304725 
L 226.240026 194.776206 
L 236.15995 207.407347 
L 246.079937 234.655079 
L 256.000025 264.328607 
L 265.919996 286.198335 
L 275.840054 295.488 
L 285.760054 290.268335 
L 295.680014 273.339121 
L 305.600007 259.289793 
L 315.520003 232.404592 
L 325.439994 182.212027 
L 335.359977 124.779822 
L 345.279978 78.585363 
L 355.200017 76.781609 
L 365.119997 105.128136 
L 375.040034 154.342992 
L 384.960036 212.642654 
L 394.880068 264.502005 
L 404.799989 291.794433 
L 414.720061 291.779964 
" clip-path="url(#p11c329bd2d)" style="fill: none; stroke: #0000ff; stroke-width: 2; stroke-linecap: square"/>
    <defs>
     <path id="m84e8fffab0" d="M 0 3 
C 0.795609 3 1.55874 2.683901 2.12132 2.12132 
C 2.683901 1.55874 3 0.795609 3 0 
C 3 -0.795609 2.683901 -1.55874 2.12132 -2.12132 
C 1.55874 -2.683901 0.795609 -3 0 -3 
C -0.795609 -3 -1.55874 -2.683901 -2.12132 -2.12132 
C -2.683901 -1.55874 -3 -0.795609 -3 0 
C -3 0.795609 -2.683901 1.55874 -2.12132 2.12132 
C -1.55874 2.683901 -0.795609 3 0 3 
z
" style="stroke: #0000ff"/>
    </defs>
    <g clip-path="url(#p11c329bd2d)">
     <use xlink:href="#m84e8fffab0" x="47.679989" y="291.794433" style="fill: #0000ff; stroke: #0000ff"/>
     <use xlink:href="#m84e8fffab0" x="57.600061" y="291.779964" style="fill: #0000ff; stroke: #0000ff"/>
     <use xlink:href="#m84e8fffab0" x="67.520048" y="272.472256" style="fill: #0000ff; stroke: #0000ff"/>
     <use xlink:href="#m84e8fffab0" x="77.439988" y="250.798085" style="fill: #0000ff; stroke: #0000ff"/>
     <use xlink:href="#m84e8fffab0" x="87.359968" y="232.851958" style="fill: #0000ff; stroke: #0000ff"/>
     <use xlink:href="#m84e8fffab0" x="97.280032" y="213.025167" style="fill: #0000ff; stroke: #0000ff"/>
     <use xlink:href="#m84e8fffab0" x="107.200035" y="204.05121" style="fill: #0000ff; stroke: #0000ff"/>
     <use xlink:href="#m84e8fffab0" x="117.120005" y="202.954953" style="fill: #0000ff; stroke: #0000ff"/>
     <use xlink:href="#m84e8fffab0" x="127.039994" y="212.255717" style="fill: #0000ff; stroke: #0000ff"/>
     <use xlink:href="#m84e8fffab0" x="136.960001" y="235.664972" style="fill: #0000ff; stroke: #0000ff"/>
     <use xlink:href="#m84e8fffab0" x="146.879995" y="257.110539" style="fill: #0000ff; stroke: #0000ff"/>
     <use xlink:href="#m84e8fffab0" x="156.799984" y="270.590838" style="fill: #0000ff; stroke: #0000ff"/>
     <use xlink:href="#m84e8fffab0" x="166.720061" y="271.613598" style="fill: #0000ff; stroke: #0000ff"/>
     <use xlink:href="#m84e8fffab0" x="176.640036" y="262.323714" style="fill: #0000ff; stroke: #0000ff"/>
     <use xlink:href="#m84e8fffab0" x="186.560036" y="244.685986" style="fill: #0000ff; stroke: #0000ff"/>
     <use xlink:href="#m84e8fffab0" x="196.480063" y="220.747857" style="fill: #0000ff; stroke: #0000ff"/>
     <use xlink:href="#m84e8fffab0" x="206.399943" y="203.755573" style="fill: #0000ff; stroke: #0000ff"/>
     <use xlink:href="#m84e8fffab0" x="216.319956" y="192.304725" style="fill: #0000ff; stroke: #0000ff"/>
     <use xlink:href="#m84e8fffab0" x="226.240026" y="194.776206" style="fill: #0000ff; stroke: #0000ff"/>
     <use xlink:href="#m84e8fffab0" x="236.15995" y="207.407347" style="fill: #0000ff; stroke: #0000ff"/>
     <use xlink:href="#m84e8fffab0" x="246.079937" y="234.655079" style="fill: #0000ff; stroke: #0000ff"/>
     <use xlink:href="#m84e8fffab0" x="256.000025" y="264.328607" style="fill: #0000ff; stroke: #0000ff"/>
     <use xlink:href="#m84e8fffab0" x="265.919996" y="286.198335" style="fill: #0000ff; stroke: #0000ff"/>
     <use xlink:href="#m84e8fffab0" x="275.840054" y="295.488" style="fill: #0000ff; stroke: #0000ff"/>
     <use xlink:href="#m84e8fffab0" x="285.760054" y="290.268335" style="fill: #0000ff; stroke: #0000ff"/>
     <use xlink:href="#m84e8fffab0" x="295.680014" y="273.339121" style="fill: #0000ff; stroke: #0000ff"/>
     <use xlink:href="#m84e8fffab0" x="305.600007" y="259.289793" style="fill: #0000ff; stroke: #0000ff"/>
     <use xlink:href="#m84e8fffab0" x="315.520003" y="232.404592" style="fill: #0000ff; stroke: #0000ff"/>
     <use xlink:href="#m84e8fffab0" x="325.439994" y="182.212027" style="fill: #0000ff; stroke: #0000ff"/>
     <use xlink:href="#m84e8fffab0" x="335.359977" y="124.779822" style="fill: #0000ff; stroke: #0000ff"/>
     <use xlink:href="#m84e8fffab0" x="345.279978" y="78.585363" style="fill: #0000ff; stroke: #0000ff"/>
     <use xlink:href="#m84e8fffab0" x="355.200017" y="76.781609" style="fill: #0000ff; stroke: #0000ff"/>
     <use xlink:href="#m84e8fffab0" x="365.119997" y="105.128136" style="fill: #0000ff; stroke: #0000ff"/>
     <use xlink:href="#m84e8fffab0" x="375.040034" y="154.342992" style="fill: #0000ff; stroke: #0000ff"/>
     <use xlink:href="#m84e8fffab0" x="384.960036" y="212.642654" style="fill: #0000ff; stroke: #0000ff"/>
     <use xlink:href="#m84e8fffab0" x="394.880068" y="264.502005" style="fill: #0000ff; stroke: #0000ff"/>
     <use xlink:href="#m84e8fffab0" x="404.799989" y="291.794433" style="fill: #0000ff; stroke: #0000ff"/>
     <use xlink:href="#m84e8fffab0" x="414.720061" y="291.779964" style="fill: #0000ff; stroke: #0000ff"/>
    </g>
   </g>
   <g id="line2d_22">
    <path d="M 270.636882 295.488 
L 270.636882 53.568 
" clip-path="url(#p11c329bd2d)" style="fill: none; stroke-dasharray: 7.4,3.2; stroke-dashoffset: 0; stroke: #000000; stroke-width: 2"/>
   </g>
   <g id="patch_3">
    <path d="M 57.6 307.584 
L 57.6 41.472 
" style="fill: none; stroke: #000000; stroke-width: 0.8; stroke-linejoin: miter; stroke-linecap: square"/>
   </g>
   <g id="patch_4">
    <path d="M 414.72 307.584 
L 414.72 41.472 
" style="fill: none; stroke: #000000; stroke-width: 0.8; stroke-linejoin: miter; stroke-linecap: square"/>
   </g>
   <g id="patch_5">
    <path d="M 57.6 307.584 
L 414.72 307.584 
" style="fill: none; stroke: #000000; stroke-width: 0.8; stroke-linejoin: miter; stroke-linecap: square"/>
   </g>
   <g id="patch_6">
    <path d="M 57.6 41.472 
L 414.72 41.472 
" style="fill: none; stroke: #000000; stroke-width: 0.8; stroke-linejoin: miter; stroke-linecap: square"/>
   </g>
   <g id="text_21">
    <!-- Dihedral angle: C7-C20-C18-N2 -->
    <g transform="translate(141.820312 35.472) scale(0.12 -0.12)">
     <defs>
      <path id="DejaVuSans-3a" d="M 750 794 
L 1409 794 
L 1409 0 
L 750 0 
L 750 794 
z
M 750 3309 
L 1409 3309 
L 1409 2516 
L 750 2516 
L 750 3309 
z
" transform="scale(0.015625)"/>
      <path id="DejaVuSans-43" d="M 4122 4306 
L 4122 3641 
Q 3803 3938 3442 4084 
Q 3081 4231 2675 4231 
Q 1875 4231 1450 3742 
Q 1025 3253 1025 2328 
Q 1025 1406 1450 917 
Q 1875 428 2675 428 
Q 3081 428 3442 575 
Q 3803 722 4122 1019 
L 4122 359 
Q 3791 134 3420 21 
Q 3050 -91 2638 -91 
Q 1578 -91 968 557 
Q 359 1206 359 2328 
Q 359 3453 968 4101 
Q 1578 4750 2638 4750 
Q 3056 4750 3426 4639 
Q 3797 4528 4122 4306 
z
" transform="scale(0.015625)"/>
      <path id="DejaVuSans-2d" d="M 313 2009 
L 1997 2009 
L 1997 1497 
L 313 1497 
L 313 2009 
z
" transform="scale(0.015625)"/>
      <path id="DejaVuSans-4e" d="M 628 4666 
L 1478 4666 
L 3547 763 
L 3547 4666 
L 4159 4666 
L 4159 0 
L 3309 0 
L 1241 3903 
L 1241 0 
L 628 0 
L 628 4666 
z
" transform="scale(0.015625)"/>
     </defs>
     <use xlink:href="#DejaVuSans-44"/>
     <use xlink:href="#DejaVuSans-69" x="77.001953"/>
     <use xlink:href="#DejaVuSans-68" x="104.785156"/>
     <use xlink:href="#DejaVuSans-65" x="168.164062"/>
     <use xlink:href="#DejaVuSans-64" x="229.6875"/>
     <use xlink:href="#DejaVuSans-72" x="293.164062"/>
     <use xlink:href="#DejaVuSans-61" x="334.277344"/>
     <use xlink:href="#DejaVuSans-6c" x="395.556641"/>
     <use xlink:href="#DejaVuSans-20" x="423.339844"/>
     <use xlink:href="#DejaVuSans-61" x="455.126953"/>
     <use xlink:href="#DejaVuSans-6e" x="516.40625"/>
     <use xlink:href="#DejaVuSans-67" x="579.785156"/>
     <use xlink:href="#DejaVuSans-6c" x="643.261719"/>
     <use xlink:href="#DejaVuSans-65" x="671.044922"/>
     <use xlink:href="#DejaVuSans-3a" x="732.568359"/>
     <use xlink:href="#DejaVuSans-20" x="766.259766"/>
     <use xlink:href="#DejaVuSans-43" x="798.046875"/>
     <use xlink:href="#DejaVuSans-37" x="867.871094"/>
     <use xlink:href="#DejaVuSans-2d" x="931.494141"/>
     <use xlink:href="#DejaVuSans-43" x="967.578125"/>
     <use xlink:href="#DejaVuSans-32" x="1037.402344"/>
     <use xlink:href="#DejaVuSans-30" x="1101.025391"/>
     <use xlink:href="#DejaVuSans-2d" x="1164.648438"/>
     <use xlink:href="#DejaVuSans-43" x="1200.732422"/>
     <use xlink:href="#DejaVuSans-31" x="1270.556641"/>
     <use xlink:href="#DejaVuSans-38" x="1334.179688"/>
     <use xlink:href="#DejaVuSans-2d" x="1397.802734"/>
     <use xlink:href="#DejaVuSans-4e" x="1433.886719"/>
     <use xlink:href="#DejaVuSans-32" x="1508.691406"/>
    </g>
   </g>
   <g id="legend_1">
    <g id="patch_7">
     <path d="M 173.601406 93.506375 
L 298.718594 93.506375 
Q 300.718594 93.506375 300.718594 91.506375 
L 300.718594 48.472 
Q 300.718594 46.472 298.718594 46.472 
L 173.601406 46.472 
Q 171.601406 46.472 171.601406 48.472 
L 171.601406 91.506375 
Q 171.601406 93.506375 173.601406 93.506375 
z
" style="fill: #ffffff; opacity: 0.8; stroke: #cccccc; stroke-linejoin: miter"/>
    </g>
    <g id="line2d_23">
     <path d="M 175.601406 54.570438 
L 185.601406 54.570438 
L 195.601406 54.570438 
" style="fill: none; stroke: #ff0000; stroke-width: 3; stroke-linecap: square"/>
     <g>
      <use xlink:href="#m4e90f097a6" x="185.601406" y="54.570438" style="fill: #ff0000; stroke: #ff0000"/>
     </g>
    </g>
    <g id="text_22">
     <!-- AIMNet2Calculator -->
     <g transform="translate(203.601406 58.070438) scale(0.1 -0.1)">
      <defs>
       <path id="DejaVuSans-41" d="M 2188 4044 
L 1331 1722 
L 3047 1722 
L 2188 4044 
z
M 1831 4666 
L 2547 4666 
L 4325 0 
L 3669 0 
L 3244 1197 
L 1141 1197 
L 716 0 
L 50 0 
L 1831 4666 
z
" transform="scale(0.015625)"/>
       <path id="DejaVuSans-49" d="M 628 4666 
L 1259 4666 
L 1259 0 
L 628 0 
L 628 4666 
z
" transform="scale(0.015625)"/>
       <path id="DejaVuSans-4d" d="M 628 4666 
L 1569 4666 
L 2759 1491 
L 3956 4666 
L 4897 4666 
L 4897 0 
L 4281 0 
L 4281 4097 
L 3078 897 
L 2444 897 
L 1241 4097 
L 1241 0 
L 628 0 
L 628 4666 
z
" transform="scale(0.015625)"/>
       <path id="DejaVuSans-74" d="M 1172 4494 
L 1172 3500 
L 2356 3500 
L 2356 3053 
L 1172 3053 
L 1172 1153 
Q 1172 725 1289 603 
Q 1406 481 1766 481 
L 2356 481 
L 2356 0 
L 1766 0 
Q 1100 0 847 248 
Q 594 497 594 1153 
L 594 3053 
L 172 3053 
L 172 3500 
L 594 3500 
L 594 4494 
L 1172 4494 
z
" transform="scale(0.015625)"/>
       <path id="DejaVuSans-75" d="M 544 1381 
L 544 3500 
L 1119 3500 
L 1119 1403 
Q 1119 906 1312 657 
Q 1506 409 1894 409 
Q 2359 409 2629 706 
Q 2900 1003 2900 1516 
L 2900 3500 
L 3475 3500 
L 3475 0 
L 2900 0 
L 2900 538 
Q 2691 219 2414 64 
Q 2138 -91 1772 -91 
Q 1169 -91 856 284 
Q 544 659 544 1381 
z
M 1991 3584 
L 1991 3584 
z
" transform="scale(0.015625)"/>
      </defs>
      <use xlink:href="#DejaVuSans-41"/>
      <use xlink:href="#DejaVuSans-49" x="68.408203"/>
      <use xlink:href="#DejaVuSans-4d" x="97.900391"/>
      <use xlink:href="#DejaVuSans-4e" x="184.179688"/>
      <use xlink:href="#DejaVuSans-65" x="258.984375"/>
      <use xlink:href="#DejaVuSans-74" x="320.507812"/>
      <use xlink:href="#DejaVuSans-32" x="359.716797"/>
      <use xlink:href="#DejaVuSans-43" x="423.339844"/>
      <use xlink:href="#DejaVuSans-61" x="493.164062"/>
      <use xlink:href="#DejaVuSans-6c" x="554.443359"/>
      <use xlink:href="#DejaVuSans-63" x="582.226562"/>
      <use xlink:href="#DejaVuSans-75" x="637.207031"/>
      <use xlink:href="#DejaVuSans-6c" x="700.585938"/>
      <use xlink:href="#DejaVuSans-61" x="728.369141"/>
      <use xlink:href="#DejaVuSans-74" x="789.648438"/>
      <use xlink:href="#DejaVuSans-6f" x="828.857422"/>
      <use xlink:href="#DejaVuSans-72" x="890.039062"/>
     </g>
    </g>
    <g id="line2d_24">
     <path d="M 175.601406 69.248563 
L 185.601406 69.248563 
L 195.601406 69.248563 
" style="fill: none; stroke: #008000; stroke-width: 2; stroke-linecap: square"/>
     <g>
      <use xlink:href="#md11ec51aec" x="185.601406" y="69.248563" style="fill: #008000; stroke: #008000"/>
     </g>
    </g>
    <g id="text_23">
     <!-- MM initial (GAFF2) -->
     <g transform="translate(203.601406 72.748563) scale(0.1 -0.1)">
      <defs>
       <path id="DejaVuSans-28" d="M 1984 4856 
Q 1566 4138 1362 3434 
Q 1159 2731 1159 2009 
Q 1159 1288 1364 580 
Q 1569 -128 1984 -844 
L 1484 -844 
Q 1016 -109 783 600 
Q 550 1309 550 2009 
Q 550 2706 781 3412 
Q 1013 4119 1484 4856 
L 1984 4856 
z
" transform="scale(0.015625)"/>
       <path id="DejaVuSans-47" d="M 3809 666 
L 3809 1919 
L 2778 1919 
L 2778 2438 
L 4434 2438 
L 4434 434 
Q 4069 175 3628 42 
Q 3188 -91 2688 -91 
Q 1594 -91 976 548 
Q 359 1188 359 2328 
Q 359 3472 976 4111 
Q 1594 4750 2688 4750 
Q 3144 4750 3555 4637 
Q 3966 4525 4313 4306 
L 4313 3634 
Q 3963 3931 3569 4081 
Q 3175 4231 2741 4231 
Q 1884 4231 1454 3753 
Q 1025 3275 1025 2328 
Q 1025 1384 1454 906 
Q 1884 428 2741 428 
Q 3075 428 3337 486 
Q 3600 544 3809 666 
z
" transform="scale(0.015625)"/>
       <path id="DejaVuSans-46" d="M 628 4666 
L 3309 4666 
L 3309 4134 
L 1259 4134 
L 1259 2759 
L 3109 2759 
L 3109 2228 
L 1259 2228 
L 1259 0 
L 628 0 
L 628 4666 
z
" transform="scale(0.015625)"/>
       <path id="DejaVuSans-29" d="M 513 4856 
L 1013 4856 
Q 1481 4119 1714 3412 
Q 1947 2706 1947 2009 
Q 1947 1309 1714 600 
Q 1481 -109 1013 -844 
L 513 -844 
Q 928 -128 1133 580 
Q 1338 1288 1338 2009 
Q 1338 2731 1133 3434 
Q 928 4138 513 4856 
z
" transform="scale(0.015625)"/>
      </defs>
      <use xlink:href="#DejaVuSans-4d"/>
      <use xlink:href="#DejaVuSans-4d" x="86.279297"/>
      <use xlink:href="#DejaVuSans-20" x="172.558594"/>
      <use xlink:href="#DejaVuSans-69" x="204.345703"/>
      <use xlink:href="#DejaVuSans-6e" x="232.128906"/>
      <use xlink:href="#DejaVuSans-69" x="295.507812"/>
      <use xlink:href="#DejaVuSans-74" x="323.291016"/>
      <use xlink:href="#DejaVuSans-69" x="362.5"/>
      <use xlink:href="#DejaVuSans-61" x="390.283203"/>
      <use xlink:href="#DejaVuSans-6c" x="451.5625"/>
      <use xlink:href="#DejaVuSans-20" x="479.345703"/>
      <use xlink:href="#DejaVuSans-28" x="511.132812"/>
      <use xlink:href="#DejaVuSans-47" x="550.146484"/>
      <use xlink:href="#DejaVuSans-41" x="627.636719"/>
      <use xlink:href="#DejaVuSans-46" x="696.044922"/>
      <use xlink:href="#DejaVuSans-46" x="753.564453"/>
      <use xlink:href="#DejaVuSans-32" x="811.083984"/>
      <use xlink:href="#DejaVuSans-29" x="874.707031"/>
     </g>
    </g>
    <g id="line2d_25">
     <path d="M 175.601406 83.926688 
L 185.601406 83.926688 
L 195.601406 83.926688 
" style="fill: none; stroke: #0000ff; stroke-width: 2; stroke-linecap: square"/>
     <g>
      <use xlink:href="#m84e8fffab0" x="185.601406" y="83.926688" style="fill: #0000ff; stroke: #0000ff"/>
     </g>
    </g>
    <g id="text_24">
     <!-- MM fitted -->
     <g transform="translate(203.601406 87.426688) scale(0.1 -0.1)">
      <defs>
       <path id="DejaVuSans-66" d="M 2375 4863 
L 2375 4384 
L 1825 4384 
Q 1516 4384 1395 4259 
Q 1275 4134 1275 3809 
L 1275 3500 
L 2222 3500 
L 2222 3053 
L 1275 3053 
L 1275 0 
L 697 0 
L 697 3053 
L 147 3053 
L 147 3500 
L 697 3500 
L 697 3744 
Q 697 4328 969 4595 
Q 1241 4863 1831 4863 
L 2375 4863 
z
" transform="scale(0.015625)"/>
      </defs>
      <use xlink:href="#DejaVuSans-4d"/>
      <use xlink:href="#DejaVuSans-4d" x="86.279297"/>
      <use xlink:href="#DejaVuSans-20" x="172.558594"/>
      <use xlink:href="#DejaVuSans-66" x="204.345703"/>
      <use xlink:href="#DejaVuSans-69" x="239.550781"/>
      <use xlink:href="#DejaVuSans-74" x="267.333984"/>
      <use xlink:href="#DejaVuSans-74" x="306.542969"/>
      <use xlink:href="#DejaVuSans-65" x="345.751953"/>
      <use xlink:href="#DejaVuSans-64" x="407.275391"/>
     </g>
    </g>
   </g>
  </g>
 </g>
 <defs>
  <clipPath id="p11c329bd2d">
   <rect x="57.6" y="41.472" width="357.12" height="266.112"/>
  </clipPath>
 </defs>
</svg>
